solid OpenSCAD_Model
  facet normal -1 0 0
    outer loop
      vertex 0 0 0
      vertex 0 40 20
      vertex 0 40 0
    endloop
  endfacet
  facet normal -1 -0 0
    outer loop
      vertex 0 40 20
      vertex 0 0 0
      vertex 0 0 20
    endloop
  endfacet
  facet normal 0 0 1
    outer loop
      vertex 91.5126 158.894 20
      vertex 88.6148 158.117 20
      vertex 91 140 20
    endloop
  endfacet
  facet normal 0 0 1
    outer loop
      vertex 84.2199 176.5 20
      vertex 88.6148 158.117 20
      vertex 91.5126 158.894 20
    endloop
  endfacet
  facet normal 0 0 1
    outer loop
      vertex 88.6148 158.117 20
      vertex 84.2199 176.5 20
      vertex 81.6218 175 20
    endloop
  endfacet
  facet normal 0 0 1
    outer loop
      vertex 91 110 20
      vertex 94 110 20
      vertex 94 140 20
    endloop
  endfacet
  facet normal 0 0 1
    outer loop
      vertex 91 140 20
      vertex 94 140 20
      vertex 91.5126 158.894 20
    endloop
  endfacet
  facet normal 0 0 1
    outer loop
      vertex 91 110 20
      vertex 94 140 20
      vertex 91 140 20
    endloop
  endfacet
  facet normal 0 0 1
    outer loop
      vertex 94 110 20
      vertex 91 110 20
      vertex 92.1697 93.756 20
    endloop
  endfacet
  facet normal -0 0 1
    outer loop
      vertex 89.245 94.4235 20
      vertex 92.1697 93.756 20
      vertex 91 110 20
    endloop
  endfacet
  facet normal 0 0 1
    outer loop
      vertex 89.245 94.4235 20
      vertex 86.7707 78.3265 20
      vertex 92.1697 93.756 20
    endloop
  endfacet
  facet normal -0 0 1
    outer loop
      vertex 84.0678 79.6281 20
      vertex 86.7707 78.3265 20
      vertex 89.245 94.4235 20
    endloop
  endfacet
  facet normal 0 0 1
    outer loop
      vertex 84.0678 79.6281 20
      vertex 78.0737 64.4852 20
      vertex 86.7707 78.3265 20
    endloop
  endfacet
  facet normal -0 0 1
    outer loop
      vertex 75.7282 66.3557 20
      vertex 78.0737 64.4852 20
      vertex 84.0678 79.6281 20
    endloop
  endfacet
  facet normal 0 0 1
    outer loop
      vertex 75.7282 66.3557 20
      vertex 66.5148 52.9263 20
      vertex 78.0737 64.4852 20
    endloop
  endfacet
  facet normal -0 0 1
    outer loop
      vertex 64.6443 55.2718 20
      vertex 66.5148 52.9263 20
      vertex 75.7282 66.3557 20
    endloop
  endfacet
  facet normal 0 0 1
    outer loop
      vertex 64.6443 55.2718 20
      vertex 52.6735 44.2293 20
      vertex 66.5148 52.9263 20
    endloop
  endfacet
  facet normal -0 0 1
    outer loop
      vertex 51.3719 46.9322 20
      vertex 52.6735 44.2293 20
      vertex 64.6443 55.2718 20
    endloop
  endfacet
  facet normal 0 0 1
    outer loop
      vertex 51.3719 46.9322 20
      vertex 37.244 38.8303 20
      vertex 52.6735 44.2293 20
    endloop
  endfacet
  facet normal -0 0 1
    outer loop
      vertex 36.5765 41.755 20
      vertex 37.244 38.8303 20
      vertex 51.3719 46.9322 20
    endloop
  endfacet
  facet normal -0 0 1
    outer loop
      vertex 21 40 20
      vertex 37.244 38.8303 20
      vertex 36.5765 41.755 20
    endloop
  endfacet
  facet normal 0 0 1
    outer loop
      vertex 21 40 20
      vertex 21 37 20
      vertex 37.244 38.8303 20
    endloop
  endfacet
  facet normal 0 0 1
    outer loop
      vertex 18 37 20
      vertex 21 37 20
      vertex 21 40 20
    endloop
  endfacet
  facet normal 0 0 1
    outer loop
      vertex 21 37 20
      vertex 18 37 20
      vertex 21 0 20
    endloop
  endfacet
  facet normal 0 0 1
    outer loop
      vertex 21 40 20
      vertex 3 37 20
      vertex 18 37 20
    endloop
  endfacet
  facet normal -0 0 1
    outer loop
      vertex 0 40 20
      vertex 3 37 20
      vertex 21 40 20
    endloop
  endfacet
  facet normal 0 0 1
    outer loop
      vertex 0 0 20
      vertex 3 37 20
      vertex 0 40 20
    endloop
  endfacet
  facet normal 0 0 1
    outer loop
      vertex 3 37 20
      vertex 0 0 20
      vertex 3 0 20
    endloop
  endfacet
  facet normal 0 0 1
    outer loop
      vertex 21 0 20
      vertex 18 37 20
      vertex 18 0 20
    endloop
  endfacet
  facet normal 1 -0 0
    outer loop
      vertex 21 0 20
      vertex 21 37 0
      vertex 21 37 20
    endloop
  endfacet
  facet normal 1 0 0
    outer loop
      vertex 21 37 0
      vertex 21 0 20
      vertex 21 0 0
    endloop
  endfacet
  facet normal 0 1 -0
    outer loop
      vertex 21 40 0
      vertex 0 40 20
      vertex 21 40 20
    endloop
  endfacet
  facet normal 0 1 0
    outer loop
      vertex 0 40 20
      vertex 21 40 0
      vertex 0 40 0
    endloop
  endfacet
  facet normal 0 0 -1
    outer loop
      vertex 3 0 0
      vertex 0 0 0
      vertex 3 37 0
    endloop
  endfacet
  facet normal 0 0 -1
    outer loop
      vertex 18 37 0
      vertex 21 37 0
      vertex 21 0 0
    endloop
  endfacet
  facet normal 0 0 -1
    outer loop
      vertex 18 37 0
      vertex 21 0 0
      vertex 18 0 0
    endloop
  endfacet
  facet normal 0 0 -1
    outer loop
      vertex 21 37 0
      vertex 18 37 0
      vertex 21 40 0
    endloop
  endfacet
  facet normal 0 0 -1
    outer loop
      vertex 3 37 0
      vertex 21 40 0
      vertex 18 37 0
    endloop
  endfacet
  facet normal 0 0 -1
    outer loop
      vertex 3 37 0
      vertex 0 40 0
      vertex 21 40 0
    endloop
  endfacet
  facet normal 0 0 -1
    outer loop
      vertex 0 40 0
      vertex 3 37 0
      vertex 0 0 0
    endloop
  endfacet
  facet normal 0 0 -1
    outer loop
      vertex 91 110 0
      vertex 94 110 0
      vertex 92.1697 93.756 0
    endloop
  endfacet
  facet normal 0 0 -1
    outer loop
      vertex 94 110 0
      vertex 91 110 0
      vertex 94 140 0
    endloop
  endfacet
  facet normal -0 0 -1
    outer loop
      vertex 94 140 0
      vertex 91 110 0
      vertex 91 140 0
    endloop
  endfacet
  facet normal 0 0 -1
    outer loop
      vertex 92.1697 93.756 0
      vertex 89.245 94.4235 0
      vertex 91 110 0
    endloop
  endfacet
  facet normal 0 0 -1
    outer loop
      vertex 86.7707 78.3265 0
      vertex 89.245 94.4235 0
      vertex 92.1697 93.756 0
    endloop
  endfacet
  facet normal 0 0 -1
    outer loop
      vertex 86.7707 78.3265 0
      vertex 84.0678 79.6281 0
      vertex 89.245 94.4235 0
    endloop
  endfacet
  facet normal 0 0 -1
    outer loop
      vertex 78.0737 64.4852 0
      vertex 84.0678 79.6281 0
      vertex 86.7707 78.3265 0
    endloop
  endfacet
  facet normal 0 0 -1
    outer loop
      vertex 78.0737 64.4852 0
      vertex 75.7282 66.3557 0
      vertex 84.0678 79.6281 0
    endloop
  endfacet
  facet normal 0 0 -1
    outer loop
      vertex 66.5148 52.9263 0
      vertex 75.7282 66.3557 0
      vertex 78.0737 64.4852 0
    endloop
  endfacet
  facet normal 0 0 -1
    outer loop
      vertex 66.5148 52.9263 0
      vertex 64.6443 55.2718 0
      vertex 75.7282 66.3557 0
    endloop
  endfacet
  facet normal 0 0 -1
    outer loop
      vertex 52.6735 44.2293 0
      vertex 64.6443 55.2718 0
      vertex 66.5148 52.9263 0
    endloop
  endfacet
  facet normal 0 0 -1
    outer loop
      vertex 52.6735 44.2293 0
      vertex 51.3719 46.9322 0
      vertex 64.6443 55.2718 0
    endloop
  endfacet
  facet normal 0 0 -1
    outer loop
      vertex 37.244 38.8303 0
      vertex 51.3719 46.9322 0
      vertex 52.6735 44.2293 0
    endloop
  endfacet
  facet normal 0 0 -1
    outer loop
      vertex 37.244 38.8303 0
      vertex 36.5765 41.755 0
      vertex 51.3719 46.9322 0
    endloop
  endfacet
  facet normal 0 0 -1
    outer loop
      vertex 21 37 0
      vertex 36.5765 41.755 0
      vertex 37.244 38.8303 0
    endloop
  endfacet
  facet normal 0 0 -1
    outer loop
      vertex 36.5765 41.755 0
      vertex 21 37 0
      vertex 21 40 0
    endloop
  endfacet
  facet normal 0 0 -1
    outer loop
      vertex 94 140 0
      vertex 91 140 0
      vertex 91.5126 158.894 0
    endloop
  endfacet
  facet normal 0 0 -1
    outer loop
      vertex 88.6148 158.117 0
      vertex 91.5126 158.894 0
      vertex 91 140 0
    endloop
  endfacet
  facet normal 0 0 -1
    outer loop
      vertex 88.6148 158.117 0
      vertex 84.2199 176.5 0
      vertex 91.5126 158.894 0
    endloop
  endfacet
  facet normal 0 -0 -1
    outer loop
      vertex 84.2199 176.5 0
      vertex 88.6148 158.117 0
      vertex 81.6218 175 0
    endloop
  endfacet
  facet normal 0 -1 0
    outer loop
      vertex 18 0 0
      vertex 21 0 20
      vertex 18 0 20
    endloop
  endfacet
  facet normal 0 -1 -0
    outer loop
      vertex 21 0 20
      vertex 18 0 0
      vertex 21 0 0
    endloop
  endfacet
  facet normal 0 -1 0
    outer loop
      vertex 0 0 0
      vertex 3 0 20
      vertex 0 0 20
    endloop
  endfacet
  facet normal 0 -1 -0
    outer loop
      vertex 3 0 20
      vertex 0 0 0
      vertex 3 0 0
    endloop
  endfacet
  facet normal 1 -0 0
    outer loop
      vertex 3 0 20
      vertex 3 37 0
      vertex 3 37 20
    endloop
  endfacet
  facet normal 1 0 0
    outer loop
      vertex 3 37 0
      vertex 3 0 20
      vertex 3 0 0
    endloop
  endfacet
  facet normal -1 0 0
    outer loop
      vertex 18 0 0
      vertex 18 37 20
      vertex 18 37 0
    endloop
  endfacet
  facet normal -1 -0 0
    outer loop
      vertex 18 37 20
      vertex 18 0 0
      vertex 18 0 20
    endloop
  endfacet
  facet normal 0 -1 0
    outer loop
      vertex 3 37 0
      vertex 18 37 20
      vertex 3 37 20
    endloop
  endfacet
  facet normal 0 -1 -0
    outer loop
      vertex 18 37 20
      vertex 3 37 0
      vertex 18 37 0
    endloop
  endfacet
  facet normal -1 0 0
    outer loop
      vertex 91 110 0
      vertex 91 140 7.2
      vertex 91 140 0
    endloop
  endfacet
  facet normal -1 -0 0
    outer loop
      vertex 91 140 7.2
      vertex 91 110 0
      vertex 91 110 7.2
    endloop
  endfacet
  facet normal -1 0 0
    outer loop
      vertex 91 110 12.8
      vertex 91 140 20
      vertex 91 140 12.8
    endloop
  endfacet
  facet normal -1 -0 0
    outer loop
      vertex 91 140 20
      vertex 91 110 12.8
      vertex 91 110 20
    endloop
  endfacet
  facet normal 1 -0 0
    outer loop
      vertex 94 110 7.2
      vertex 94 140 0
      vertex 94 140 7.2
    endloop
  endfacet
  facet normal 1 0 0
    outer loop
      vertex 94 140 0
      vertex 94 110 7.2
      vertex 94 110 0
    endloop
  endfacet
  facet normal 1 -0 0
    outer loop
      vertex 94 110 20
      vertex 94 140 12.8
      vertex 94 140 20
    endloop
  endfacet
  facet normal 1 0 0
    outer loop
      vertex 94 140 12.8
      vertex 94 110 20
      vertex 94 110 12.8
    endloop
  endfacet
  facet normal 0 1 -0
    outer loop
      vertex 94 110 7.2
      vertex 91 110 12.8
      vertex 94 110 12.8
    endloop
  endfacet
  facet normal 0 1 0
    outer loop
      vertex 91 110 12.8
      vertex 94 110 7.2
      vertex 91 110 7.2
    endloop
  endfacet
  facet normal -0.499997 0.866027 0
    outer loop
      vertex 84.2199 176.5 12.8
      vertex 81.6218 175 20
      vertex 84.2199 176.5 20
    endloop
  endfacet
  facet normal -0.499997 0.866027 0
    outer loop
      vertex 81.6218 175 20
      vertex 84.2199 176.5 12.8
      vertex 81.6218 175 12.8
    endloop
  endfacet
  facet normal -0.499997 0.866027 0
    outer loop
      vertex 84.2199 176.5 0
      vertex 81.6218 175 7.2
      vertex 84.2199 176.5 7.2
    endloop
  endfacet
  facet normal -0.499997 0.866027 0
    outer loop
      vertex 81.6218 175 7.2
      vertex 84.2199 176.5 0
      vertex 81.6218 175 0
    endloop
  endfacet
  facet normal 0.991445 0.130524 0
    outer loop
      vertex 94 140 7.2
      vertex 91.5126 158.894 0
      vertex 91.5126 158.894 7.2
    endloop
  endfacet
  facet normal 0.991445 0.130524 0
    outer loop
      vertex 91.5126 158.894 0
      vertex 94 140 7.2
      vertex 94 140 0
    endloop
  endfacet
  facet normal 0.991445 0.130524 0
    outer loop
      vertex 94 140 20
      vertex 91.5126 158.894 12.8
      vertex 91.5126 158.894 20
    endloop
  endfacet
  facet normal 0.991445 0.130524 0
    outer loop
      vertex 91.5126 158.894 12.8
      vertex 94 140 20
      vertex 94 140 12.8
    endloop
  endfacet
  facet normal -0.991444 -0.130529 0
    outer loop
      vertex 91 140 0
      vertex 88.6148 158.117 7.2
      vertex 88.6148 158.117 0
    endloop
  endfacet
  facet normal -0.991444 -0.130529 0
    outer loop
      vertex 88.6148 158.117 7.2
      vertex 91 140 0
      vertex 91 140 7.2
    endloop
  endfacet
  facet normal -0.991444 -0.130529 0
    outer loop
      vertex 91 140 12.8
      vertex 88.6148 158.117 20
      vertex 88.6148 158.117 12.8
    endloop
  endfacet
  facet normal -0.991444 -0.130529 0
    outer loop
      vertex 88.6148 158.117 20
      vertex 91 140 12.8
      vertex 91 140 20
    endloop
  endfacet
  facet normal 0.923878 0.382686 0
    outer loop
      vertex 91.5126 158.894 7.2
      vertex 84.2199 176.5 0
      vertex 84.2199 176.5 7.2
    endloop
  endfacet
  facet normal 0.923878 0.382686 0
    outer loop
      vertex 84.2199 176.5 0
      vertex 91.5126 158.894 7.2
      vertex 91.5126 158.894 0
    endloop
  endfacet
  facet normal 0.923878 0.382686 0
    outer loop
      vertex 91.5126 158.894 20
      vertex 84.2199 176.5 12.8
      vertex 84.2199 176.5 20
    endloop
  endfacet
  facet normal 0.923878 0.382686 0
    outer loop
      vertex 84.2199 176.5 12.8
      vertex 91.5126 158.894 20
      vertex 91.5126 158.894 12.8
    endloop
  endfacet
  facet normal -0.923883 -0.382676 0
    outer loop
      vertex 88.6148 158.117 12.8
      vertex 81.6218 175 20
      vertex 81.6218 175 12.8
    endloop
  endfacet
  facet normal -0.923883 -0.382676 0
    outer loop
      vertex 81.6218 175 20
      vertex 88.6148 158.117 12.8
      vertex 88.6148 158.117 20
    endloop
  endfacet
  facet normal -0.923883 -0.382676 0
    outer loop
      vertex 88.6148 158.117 0
      vertex 81.6218 175 7.2
      vertex 81.6218 175 0
    endloop
  endfacet
  facet normal -0.923883 -0.382676 0
    outer loop
      vertex 81.6218 175 7.2
      vertex 88.6148 158.117 0
      vertex 88.6148 158.117 7.2
    endloop
  endfacet
  facet normal 0 0 -1
    outer loop
      vertex 91 140 12.8
      vertex 94 140 12.8
      vertex 94 110 12.8
    endloop
  endfacet
  facet normal 0 0 -1
    outer loop
      vertex 91 140 12.8
      vertex 94 110 12.8
      vertex 91 110 12.8
    endloop
  endfacet
  facet normal 0 0 -1
    outer loop
      vertex 94 140 12.8
      vertex 91 140 12.8
      vertex 91.5126 158.894 12.8
    endloop
  endfacet
  facet normal 0 0 -1
    outer loop
      vertex 88.6148 158.117 12.8
      vertex 91.5126 158.894 12.8
      vertex 91 140 12.8
    endloop
  endfacet
  facet normal 0 0 -1
    outer loop
      vertex 88.6148 158.117 12.8
      vertex 84.2199 176.5 12.8
      vertex 91.5126 158.894 12.8
    endloop
  endfacet
  facet normal 0 -0 -1
    outer loop
      vertex 84.2199 176.5 12.8
      vertex 88.6148 158.117 12.8
      vertex 81.6218 175 12.8
    endloop
  endfacet
  facet normal 0 0 1
    outer loop
      vertex 91.5126 158.894 7.2
      vertex 88.6148 158.117 7.2
      vertex 91 140 7.2
    endloop
  endfacet
  facet normal 0 0 1
    outer loop
      vertex 84.2199 176.5 7.2
      vertex 88.6148 158.117 7.2
      vertex 91.5126 158.894 7.2
    endloop
  endfacet
  facet normal 0 0 1
    outer loop
      vertex 88.6148 158.117 7.2
      vertex 84.2199 176.5 7.2
      vertex 81.6218 175 7.2
    endloop
  endfacet
  facet normal 0 0 1
    outer loop
      vertex 91 140 7.2
      vertex 94 140 7.2
      vertex 91.5126 158.894 7.2
    endloop
  endfacet
  facet normal 0 0 1
    outer loop
      vertex 94 140 7.2
      vertex 91 140 7.2
      vertex 94 110 7.2
    endloop
  endfacet
  facet normal 0 0 1
    outer loop
      vertex 94 110 7.2
      vertex 91 140 7.2
      vertex 91 110 7.2
    endloop
  endfacet
  facet normal 0.993712 -0.111967 0
    outer loop
      vertex 92.1697 93.756 20
      vertex 94 110 12.8
      vertex 94 110 20
    endloop
  endfacet
  facet normal 0.993712 -0.111967 0
    outer loop
      vertex 94 110 12.8
      vertex 92.1697 93.756 20
      vertex 94 110 7.2
    endloop
  endfacet
  facet normal 0.993712 -0.111967 0
    outer loop
      vertex 92.1697 93.756 0
      vertex 94 110 7.2
      vertex 92.1697 93.756 20
    endloop
  endfacet
  facet normal 0.993712 -0.111967 0
    outer loop
      vertex 94 110 7.2
      vertex 92.1697 93.756 0
      vertex 94 110 0
    endloop
  endfacet
  facet normal -0.993713 0.111961 0
    outer loop
      vertex 89.245 94.4235 0
      vertex 91 110 7.2
      vertex 91 110 0
    endloop
  endfacet
  facet normal -0.993713 0.111961 0
    outer loop
      vertex 91 110 7.2
      vertex 89.245 94.4235 0
      vertex 91 110 12.8
    endloop
  endfacet
  facet normal -0.993713 0.111961 0
    outer loop
      vertex 89.245 94.4235 20
      vertex 91 110 12.8
      vertex 89.245 94.4235 0
    endloop
  endfacet
  facet normal -0.993713 0.111961 0
    outer loop
      vertex 91 110 12.8
      vertex 89.245 94.4235 20
      vertex 91 110 20
    endloop
  endfacet
  facet normal 0.943884 -0.330278 0
    outer loop
      vertex 86.7707 78.3265 20
      vertex 92.1697 93.756 0
      vertex 92.1697 93.756 20
    endloop
  endfacet
  facet normal 0.943884 -0.330278 0
    outer loop
      vertex 92.1697 93.756 0
      vertex 86.7707 78.3265 20
      vertex 86.7707 78.3265 0
    endloop
  endfacet
  facet normal -0.943882 0.330283 0
    outer loop
      vertex 84.0678 79.6281 0
      vertex 89.245 94.4235 20
      vertex 89.245 94.4235 0
    endloop
  endfacet
  facet normal -0.943882 0.330283 0
    outer loop
      vertex 89.245 94.4235 20
      vertex 84.0678 79.6281 0
      vertex 84.0678 79.6281 20
    endloop
  endfacet
  facet normal 0.846726 -0.532029 0
    outer loop
      vertex 78.0737 64.4852 20
      vertex 86.7707 78.3265 0
      vertex 86.7707 78.3265 20
    endloop
  endfacet
  facet normal 0.846726 -0.532029 0
    outer loop
      vertex 86.7707 78.3265 0
      vertex 78.0737 64.4852 20
      vertex 78.0737 64.4852 0
    endloop
  endfacet
  facet normal -0.846724 0.532032 0
    outer loop
      vertex 75.7282 66.3557 0
      vertex 84.0678 79.6281 20
      vertex 84.0678 79.6281 0
    endloop
  endfacet
  facet normal -0.846724 0.532032 0
    outer loop
      vertex 84.0678 79.6281 20
      vertex 75.7282 66.3557 0
      vertex 75.7282 66.3557 20
    endloop
  endfacet
  facet normal 0.707107 -0.707107 0
    outer loop
      vertex 66.5148 52.9263 20
      vertex 78.0737 64.4852 0
      vertex 78.0737 64.4852 20
    endloop
  endfacet
  facet normal 0.707107 -0.707107 0
    outer loop
      vertex 78.0737 64.4852 0
      vertex 66.5148 52.9263 20
      vertex 66.5148 52.9263 0
    endloop
  endfacet
  facet normal -0.707107 0.707107 0
    outer loop
      vertex 64.6443 55.2718 0
      vertex 75.7282 66.3557 20
      vertex 75.7282 66.3557 0
    endloop
  endfacet
  facet normal -0.707107 0.707107 0
    outer loop
      vertex 75.7282 66.3557 20
      vertex 64.6443 55.2718 0
      vertex 64.6443 55.2718 20
    endloop
  endfacet
  facet normal 0.532029 -0.846726 0
    outer loop
      vertex 52.6735 44.2293 0
      vertex 66.5148 52.9263 20
      vertex 52.6735 44.2293 20
    endloop
  endfacet
  facet normal 0.532029 -0.846726 0
    outer loop
      vertex 66.5148 52.9263 20
      vertex 52.6735 44.2293 0
      vertex 66.5148 52.9263 0
    endloop
  endfacet
  facet normal -0.532032 0.846724 0
    outer loop
      vertex 64.6443 55.2718 0
      vertex 51.3719 46.9322 20
      vertex 64.6443 55.2718 20
    endloop
  endfacet
  facet normal -0.532032 0.846724 0
    outer loop
      vertex 51.3719 46.9322 20
      vertex 64.6443 55.2718 0
      vertex 51.3719 46.9322 0
    endloop
  endfacet
  facet normal 0.330278 -0.943884 0
    outer loop
      vertex 37.244 38.8303 0
      vertex 52.6735 44.2293 20
      vertex 37.244 38.8303 20
    endloop
  endfacet
  facet normal 0.330278 -0.943884 0
    outer loop
      vertex 52.6735 44.2293 20
      vertex 37.244 38.8303 0
      vertex 52.6735 44.2293 0
    endloop
  endfacet
  facet normal -0.330283 0.943882 0
    outer loop
      vertex 51.3719 46.9322 0
      vertex 36.5765 41.755 20
      vertex 51.3719 46.9322 20
    endloop
  endfacet
  facet normal -0.330283 0.943882 0
    outer loop
      vertex 36.5765 41.755 20
      vertex 51.3719 46.9322 0
      vertex 36.5765 41.755 0
    endloop
  endfacet
  facet normal 0.111967 -0.993712 0
    outer loop
      vertex 21 37 0
      vertex 37.244 38.8303 20
      vertex 21 37 20
    endloop
  endfacet
  facet normal 0.111967 -0.993712 0
    outer loop
      vertex 37.244 38.8303 20
      vertex 21 37 0
      vertex 37.244 38.8303 0
    endloop
  endfacet
  facet normal -0.111961 0.993713 0
    outer loop
      vertex 36.5765 41.755 0
      vertex 21 40 20
      vertex 36.5765 41.755 20
    endloop
  endfacet
  facet normal -0.111961 0.993713 0
    outer loop
      vertex 21 40 20
      vertex 36.5765 41.755 0
      vertex 21 40 0
    endloop
  endfacet
endsolid OpenSCAD_Model
