solid OpenSCAD_Model
  facet normal -0 0 1
    outer loop
      vertex -5.6 0 30
      vertex 0 -30 30
      vertex 0 0 30
    endloop
  endfacet
  facet normal 0 0 1
    outer loop
      vertex 0 -30 30
      vertex -5.6 0 30
      vertex -5.6 -30 30
    endloop
  endfacet
  facet normal 0 1 -0
    outer loop
      vertex 0 0 0
      vertex -5.6 0 30
      vertex 0 0 30
    endloop
  endfacet
  facet normal 0 1 0
    outer loop
      vertex -5.6 0 30
      vertex 0 0 0
      vertex -5.6 0 0
    endloop
  endfacet
  facet normal 0 -1 0
    outer loop
      vertex -5.6 -30 17.8
      vertex 0 -30 30
      vertex -5.6 -30 30
    endloop
  endfacet
  facet normal 0 -1 -0
    outer loop
      vertex 0 -30 30
      vertex -5.6 -30 17.8
      vertex 0 -30 17.8
    endloop
  endfacet
  facet normal 0 -1 0
    outer loop
      vertex -5.6 -30 0
      vertex 0 -30 12.2
      vertex -5.6 -30 12.2
    endloop
  endfacet
  facet normal 0 -1 -0
    outer loop
      vertex 0 -30 12.2
      vertex -5.6 -30 0
      vertex 0 -30 0
    endloop
  endfacet
  facet normal -1 0 0
    outer loop
      vertex -5.6 -30 12.2
      vertex -5.6 0 0
      vertex -5.6 -30 0
    endloop
  endfacet
  facet normal -1 0 0
    outer loop
      vertex -5.6 0 0
      vertex -5.6 -30 12.2
      vertex -5.6 0 30
    endloop
  endfacet
  facet normal -1 0 0
    outer loop
      vertex -5.6 -30 17.8
      vertex -5.6 0 30
      vertex -5.6 -30 12.2
    endloop
  endfacet
  facet normal -1 -0 0
    outer loop
      vertex -5.6 0 30
      vertex -5.6 -30 17.8
      vertex -5.6 -30 30
    endloop
  endfacet
  facet normal 0 0 -1
    outer loop
      vertex -5.6 -30 0
      vertex 0 0 0
      vertex 0 -30 0
    endloop
  endfacet
  facet normal -0 0 -1
    outer loop
      vertex 0 0 0
      vertex -5.6 -30 0
      vertex -5.6 0 0
    endloop
  endfacet
  facet normal 1 0 0
    outer loop
      vertex 0 -30 17.8
      vertex 0 0 30
      vertex 0 -30 30
    endloop
  endfacet
  facet normal 1 0 0
    outer loop
      vertex 0 0 30
      vertex 0 -30 17.8
      vertex 0 0 0
    endloop
  endfacet
  facet normal 1 -0 0
    outer loop
      vertex 0 -30 12.2
      vertex 0 0 0
      vertex 0 -30 17.8
    endloop
  endfacet
  facet normal 1 0 0
    outer loop
      vertex 0 0 0
      vertex 0 -30 12.2
      vertex 0 -30 0
    endloop
  endfacet
  facet normal 0 1 -0
    outer loop
      vertex -35.6 -30 12.2
      vertex -41.2 -30 17.8
      vertex -35.6 -30 17.8
    endloop
  endfacet
  facet normal 0 1 0
    outer loop
      vertex -41.2 -30 17.8
      vertex -35.6 -30 12.2
      vertex -41.2 -30 12.2
    endloop
  endfacet
  facet normal 0.999507 -0.0314097 0
    outer loop
      vertex -0.0406485 -31.2935 17.8
      vertex 0 -30 12.2
      vertex 0 -30 17.8
    endloop
  endfacet
  facet normal 0.999507 -0.0314097 0
    outer loop
      vertex 0 -30 12.2
      vertex -0.0406485 -31.2935 17.8
      vertex -0.0406485 -31.2935 12.2
    endloop
  endfacet
  facet normal -0.999507 0.0314103 0
    outer loop
      vertex -5.6296 -30.9419 12.2
      vertex -5.6 -30 17.8
      vertex -5.6 -30 12.2
    endloop
  endfacet
  facet normal -0.999507 0.0314103 0
    outer loop
      vertex -5.6 -30 17.8
      vertex -5.6296 -30.9419 12.2
      vertex -5.6296 -30.9419 17.8
    endloop
  endfacet
  facet normal 0.995562 -0.0941067 0
    outer loop
      vertex -0.162436 -32.5819 17.8
      vertex -0.0406485 -31.2935 12.2
      vertex -0.0406485 -31.2935 17.8
    endloop
  endfacet
  facet normal 0.995562 -0.0941067 0
    outer loop
      vertex -0.0406485 -31.2935 12.2
      vertex -0.162436 -32.5819 17.8
      vertex -0.162436 -32.5819 12.2
    endloop
  endfacet
  facet normal -0.995562 0.0941119 0
    outer loop
      vertex -5.71828 -31.88 12.2
      vertex -5.6296 -30.9419 17.8
      vertex -5.6296 -30.9419 12.2
    endloop
  endfacet
  facet normal -0.995562 0.0941119 0
    outer loop
      vertex -5.6296 -30.9419 17.8
      vertex -5.71828 -31.88 12.2
      vertex -5.71828 -31.88 17.8
    endloop
  endfacet
  facet normal 0.987688 -0.156434 0
    outer loop
      vertex -0.364882 -33.8601 17.8
      vertex -0.162436 -32.5819 12.2
      vertex -0.162436 -32.5819 17.8
    endloop
  endfacet
  facet normal 0.987688 -0.156434 0
    outer loop
      vertex -0.162436 -32.5819 12.2
      vertex -0.364882 -33.8601 17.8
      vertex -0.364882 -33.8601 12.2
    endloop
  endfacet
  facet normal -0.987688 0.156436 0
    outer loop
      vertex -5.86569 -32.8107 12.2
      vertex -5.71828 -31.88 17.8
      vertex -5.71828 -31.88 12.2
    endloop
  endfacet
  facet normal -0.987688 0.156436 0
    outer loop
      vertex -5.71828 -31.88 17.8
      vertex -5.86569 -32.8107 12.2
      vertex -5.86569 -32.8107 17.8
    endloop
  endfacet
  facet normal 0.975915 -0.218153 0
    outer loop
      vertex -0.647187 -35.123 17.8
      vertex -0.364882 -33.8601 12.2
      vertex -0.364882 -33.8601 17.8
    endloop
  endfacet
  facet normal 0.975915 -0.218153 0
    outer loop
      vertex -0.364882 -33.8601 12.2
      vertex -0.647187 -35.123 17.8
      vertex -0.647187 -35.123 12.2
    endloop
  endfacet
  facet normal -0.975916 0.218148 0
    outer loop
      vertex -6.07125 -33.7303 12.2
      vertex -5.86569 -32.8107 17.8
      vertex -5.86569 -32.8107 12.2
    endloop
  endfacet
  facet normal -0.975916 0.218148 0
    outer loop
      vertex -5.86569 -32.8107 17.8
      vertex -6.07125 -33.7303 12.2
      vertex -6.07125 -33.7303 17.8
    endloop
  endfacet
  facet normal 0.960293 -0.278995 0
    outer loop
      vertex -1.00823 -36.3657 17.8
      vertex -0.647187 -35.123 12.2
      vertex -0.647187 -35.123 17.8
    endloop
  endfacet
  facet normal 0.960293 -0.278995 0
    outer loop
      vertex -0.647187 -35.123 12.2
      vertex -1.00823 -36.3657 17.8
      vertex -1.00823 -36.3657 12.2
    endloop
  endfacet
  facet normal -0.960301 0.278965 0
    outer loop
      vertex -6.33415 -34.6353 12.2
      vertex -6.07125 -33.7303 17.8
      vertex -6.07125 -33.7303 12.2
    endloop
  endfacet
  facet normal -0.960301 0.278965 0
    outer loop
      vertex -6.07125 -33.7303 17.8
      vertex -6.33415 -34.6353 12.2
      vertex -6.33415 -34.6353 17.8
    endloop
  endfacet
  facet normal 0.940888 -0.338718 0
    outer loop
      vertex -1.4466 -37.5834 17.8
      vertex -1.00823 -36.3657 12.2
      vertex -1.00823 -36.3657 17.8
    endloop
  endfacet
  facet normal 0.940888 -0.338718 0
    outer loop
      vertex -1.00823 -36.3657 12.2
      vertex -1.4466 -37.5834 17.8
      vertex -1.4466 -37.5834 12.2
    endloop
  endfacet
  facet normal -0.940879 0.338742 0
    outer loop
      vertex -6.65335 -35.5219 12.2
      vertex -6.33415 -34.6353 17.8
      vertex -6.33415 -34.6353 12.2
    endloop
  endfacet
  facet normal -0.940879 0.338742 0
    outer loop
      vertex -6.33415 -34.6353 17.8
      vertex -6.65335 -35.5219 12.2
      vertex -6.65335 -35.5219 17.8
    endloop
  endfacet
  facet normal 0.917756 -0.397145 0
    outer loop
      vertex -1.96056 -38.7711 17.8
      vertex -1.4466 -37.5834 12.2
      vertex -1.4466 -37.5834 17.8
    endloop
  endfacet
  facet normal 0.917756 -0.397145 0
    outer loop
      vertex -1.4466 -37.5834 12.2
      vertex -1.96056 -38.7711 17.8
      vertex -1.96056 -38.7711 12.2
    endloop
  endfacet
  facet normal -0.917752 0.397155 0
    outer loop
      vertex -7.02759 -36.3867 12.2
      vertex -6.65335 -35.5219 17.8
      vertex -6.65335 -35.5219 12.2
    endloop
  endfacet
  facet normal -0.917752 0.397155 0
    outer loop
      vertex -6.65335 -35.5219 17.8
      vertex -7.02759 -36.3867 12.2
      vertex -7.02759 -36.3867 17.8
    endloop
  endfacet
  facet normal 0.890995 -0.454013 0
    outer loop
      vertex -2.54808 -39.9241 17.8
      vertex -1.96056 -38.7711 12.2
      vertex -1.96056 -38.7711 17.8
    endloop
  endfacet
  facet normal 0.890995 -0.454013 0
    outer loop
      vertex -1.96056 -38.7711 12.2
      vertex -2.54808 -39.9241 17.8
      vertex -2.54808 -39.9241 12.2
    endloop
  endfacet
  facet normal -0.891001 0.454001 0
    outer loop
      vertex -7.4554 -37.2263 12.2
      vertex -7.02759 -36.3867 17.8
      vertex -7.02759 -36.3867 12.2
    endloop
  endfacet
  facet normal -0.891001 0.454001 0
    outer loop
      vertex -7.02759 -36.3867 17.8
      vertex -7.4554 -37.2263 12.2
      vertex -7.4554 -37.2263 17.8
    endloop
  endfacet
  facet normal 0.860742 -0.509042 0
    outer loop
      vertex -3.20684 -41.038 17.8
      vertex -2.54808 -39.9241 12.2
      vertex -2.54808 -39.9241 17.8
    endloop
  endfacet
  facet normal 0.860742 -0.509042 0
    outer loop
      vertex -2.54808 -39.9241 12.2
      vertex -3.20684 -41.038 17.8
      vertex -3.20684 -41.038 12.2
    endloop
  endfacet
  facet normal -0.860744 0.509039 0
    outer loop
      vertex -7.93508 -38.0374 12.2
      vertex -7.4554 -37.2263 17.8
      vertex -7.4554 -37.2263 12.2
    endloop
  endfacet
  facet normal -0.860744 0.509039 0
    outer loop
      vertex -7.4554 -37.2263 17.8
      vertex -7.93508 -38.0374 12.2
      vertex -7.93508 -38.0374 17.8
    endloop
  endfacet
  facet normal 0.827092 -0.562066 0
    outer loop
      vertex -3.93425 -42.1084 17.8
      vertex -3.20684 -41.038 12.2
      vertex -3.20684 -41.038 17.8
    endloop
  endfacet
  facet normal 0.827092 -0.562066 0
    outer loop
      vertex -3.20684 -41.038 12.2
      vertex -3.93425 -42.1084 17.8
      vertex -3.93425 -42.1084 12.2
    endloop
  endfacet
  facet normal -0.82709 0.562069 0
    outer loop
      vertex -8.46474 -38.8168 12.2
      vertex -7.93508 -38.0374 17.8
      vertex -7.93508 -38.0374 12.2
    endloop
  endfacet
  facet normal -0.82709 0.562069 0
    outer loop
      vertex -7.93508 -38.0374 17.8
      vertex -8.46474 -38.8168 12.2
      vertex -8.46474 -38.8168 17.8
    endloop
  endfacet
  facet normal 0.790137 -0.61293 0
    outer loop
      vertex -4.72743 -43.1309 17.8
      vertex -3.93425 -42.1084 12.2
      vertex -3.93425 -42.1084 17.8
    endloop
  endfacet
  facet normal 0.790137 -0.61293 0
    outer loop
      vertex -3.93425 -42.1084 12.2
      vertex -4.72743 -43.1309 17.8
      vertex -4.72743 -43.1309 12.2
    endloop
  endfacet
  facet normal -0.790161 0.6129 0
    outer loop
      vertex -9.0423 -39.5614 12.2
      vertex -8.46474 -38.8168 17.8
      vertex -8.46474 -38.8168 12.2
    endloop
  endfacet
  facet normal -0.790161 0.6129 0
    outer loop
      vertex -8.46474 -38.8168 17.8
      vertex -9.0423 -39.5614 12.2
      vertex -9.0423 -39.5614 17.8
    endloop
  endfacet
  facet normal 0.750132 -0.661288 0
    outer loop
      vertex -5.58325 -44.1017 17.8
      vertex -4.72743 -43.1309 12.2
      vertex -4.72743 -43.1309 17.8
    endloop
  endfacet
  facet normal 0.750132 -0.661288 0
    outer loop
      vertex -4.72743 -43.1309 12.2
      vertex -5.58325 -44.1017 17.8
      vertex -5.58325 -44.1017 12.2
    endloop
  endfacet
  facet normal -0.750089 0.661337 0
    outer loop
      vertex -9.66547 -40.2682 12.2
      vertex -9.0423 -39.5614 17.8
      vertex -9.0423 -39.5614 12.2
    endloop
  endfacet
  facet normal -0.750089 0.661337 0
    outer loop
      vertex -9.0423 -39.5614 17.8
      vertex -9.66547 -40.2682 12.2
      vertex -9.66547 -40.2682 17.8
    endloop
  endfacet
  facet normal 0.707115 -0.707099 0
    outer loop
      vertex -6.49833 -45.0168 17.8
      vertex -5.58325 -44.1017 12.2
      vertex -5.58325 -44.1017 17.8
    endloop
  endfacet
  facet normal 0.707115 -0.707099 0
    outer loop
      vertex -5.58325 -44.1017 12.2
      vertex -6.49833 -45.0168 17.8
      vertex -6.49833 -45.0168 12.2
    endloop
  endfacet
  facet normal -0.707091 0.707123 0
    outer loop
      vertex -9.66547 -40.2682 12.2
      vertex -10.3318 -40.9345 17.8
      vertex -9.66547 -40.2682 17.8
    endloop
  endfacet
  facet normal -0.707091 0.707123 0
    outer loop
      vertex -10.3318 -40.9345 17.8
      vertex -9.66547 -40.2682 12.2
      vertex -10.3318 -40.9345 12.2
    endloop
  endfacet
  facet normal 0.661302 -0.75012 0
    outer loop
      vertex -7.46907 -45.8726 12.2
      vertex -6.49833 -45.0168 17.8
      vertex -7.46907 -45.8726 17.8
    endloop
  endfacet
  facet normal 0.661302 -0.75012 0
    outer loop
      vertex -6.49833 -45.0168 17.8
      vertex -7.46907 -45.8726 12.2
      vertex -6.49833 -45.0168 12.2
    endloop
  endfacet
  facet normal -0.661355 0.750073 0
    outer loop
      vertex -10.3318 -40.9345 12.2
      vertex -11.0386 -41.5577 17.8
      vertex -10.3318 -40.9345 17.8
    endloop
  endfacet
  facet normal -0.661355 0.750073 0
    outer loop
      vertex -11.0386 -41.5577 17.8
      vertex -10.3318 -40.9345 12.2
      vertex -11.0386 -41.5577 12.2
    endloop
  endfacet
  facet normal 0.612873 -0.790182 0
    outer loop
      vertex -8.49162 -46.6657 12.2
      vertex -7.46907 -45.8726 17.8
      vertex -8.49162 -46.6657 17.8
    endloop
  endfacet
  facet normal 0.612873 -0.790182 0
    outer loop
      vertex -7.46907 -45.8726 17.8
      vertex -8.49162 -46.6657 12.2
      vertex -7.46907 -45.8726 12.2
    endloop
  endfacet
  facet normal -0.612926 0.79014 0
    outer loop
      vertex -11.0386 -41.5577 12.2
      vertex -11.7832 -42.1353 17.8
      vertex -11.0386 -41.5577 17.8
    endloop
  endfacet
  facet normal -0.612926 0.79014 0
    outer loop
      vertex -11.7832 -42.1353 17.8
      vertex -11.0386 -41.5577 12.2
      vertex -11.7832 -42.1353 12.2
    endloop
  endfacet
  facet normal 0.562131 -0.827048 0
    outer loop
      vertex -9.56197 -47.3932 12.2
      vertex -8.49162 -46.6657 17.8
      vertex -9.56197 -47.3932 17.8
    endloop
  endfacet
  facet normal 0.562131 -0.827048 0
    outer loop
      vertex -8.49162 -46.6657 17.8
      vertex -9.56197 -47.3932 12.2
      vertex -8.49162 -46.6657 12.2
    endloop
  endfacet
  facet normal -0.562026 0.82712 0
    outer loop
      vertex -11.7832 -42.1353 12.2
      vertex -12.5626 -42.6649 17.8
      vertex -11.7832 -42.1353 17.8
    endloop
  endfacet
  facet normal -0.562026 0.82712 0
    outer loop
      vertex -12.5626 -42.6649 17.8
      vertex -11.7832 -42.1353 12.2
      vertex -12.5626 -42.6649 12.2
    endloop
  endfacet
  facet normal 0.508998 -0.860768 0
    outer loop
      vertex -10.6759 -48.0519 12.2
      vertex -9.56197 -47.3932 17.8
      vertex -10.6759 -48.0519 17.8
    endloop
  endfacet
  facet normal 0.508998 -0.860768 0
    outer loop
      vertex -9.56197 -47.3932 17.8
      vertex -10.6759 -48.0519 12.2
      vertex -9.56197 -47.3932 12.2
    endloop
  endfacet
  facet normal -0.509055 0.860734 0
    outer loop
      vertex -12.5626 -42.6649 12.2
      vertex -13.3737 -43.1446 17.8
      vertex -12.5626 -42.6649 17.8
    endloop
  endfacet
  facet normal -0.509055 0.860734 0
    outer loop
      vertex -13.3737 -43.1446 17.8
      vertex -12.5626 -42.6649 12.2
      vertex -13.3737 -43.1446 12.2
    endloop
  endfacet
  facet normal 0.454001 -0.891001 0
    outer loop
      vertex -11.8289 -48.6394 12.2
      vertex -10.6759 -48.0519 17.8
      vertex -11.8289 -48.6394 17.8
    endloop
  endfacet
  facet normal 0.454001 -0.891001 0
    outer loop
      vertex -10.6759 -48.0519 17.8
      vertex -11.8289 -48.6394 12.2
      vertex -10.6759 -48.0519 12.2
    endloop
  endfacet
  facet normal -0.453993 0.891005 0
    outer loop
      vertex -13.3737 -43.1446 12.2
      vertex -14.2133 -43.5724 17.8
      vertex -13.3737 -43.1446 17.8
    endloop
  endfacet
  facet normal -0.453993 0.891005 0
    outer loop
      vertex -14.2133 -43.5724 17.8
      vertex -13.3737 -43.1446 12.2
      vertex -14.2133 -43.5724 12.2
    endloop
  endfacet
  facet normal 0.397172 -0.917744 0
    outer loop
      vertex -13.0166 -49.1534 12.2
      vertex -11.8289 -48.6394 17.8
      vertex -13.0166 -49.1534 17.8
    endloop
  endfacet
  facet normal 0.397172 -0.917744 0
    outer loop
      vertex -11.8289 -48.6394 17.8
      vertex -13.0166 -49.1534 12.2
      vertex -11.8289 -48.6394 12.2
    endloop
  endfacet
  facet normal -0.397119 0.917767 0
    outer loop
      vertex -14.2133 -43.5724 12.2
      vertex -15.0781 -43.9466 17.8
      vertex -14.2133 -43.5724 17.8
    endloop
  endfacet
  facet normal -0.397119 0.917767 0
    outer loop
      vertex -15.0781 -43.9466 17.8
      vertex -14.2133 -43.5724 12.2
      vertex -15.0781 -43.9466 12.2
    endloop
  endfacet
  facet normal 0.338763 -0.940872 0
    outer loop
      vertex -14.2342 -49.5918 12.2
      vertex -13.0166 -49.1534 17.8
      vertex -14.2342 -49.5918 17.8
    endloop
  endfacet
  facet normal 0.338763 -0.940872 0
    outer loop
      vertex -13.0166 -49.1534 17.8
      vertex -14.2342 -49.5918 12.2
      vertex -13.0166 -49.1534 12.2
    endloop
  endfacet
  facet normal -0.338742 0.940879 0
    outer loop
      vertex -15.0781 -43.9466 12.2
      vertex -15.9647 -44.2658 17.8
      vertex -15.0781 -43.9466 17.8
    endloop
  endfacet
  facet normal -0.338742 0.940879 0
    outer loop
      vertex -15.9647 -44.2658 17.8
      vertex -15.0781 -43.9466 12.2
      vertex -15.9647 -44.2658 12.2
    endloop
  endfacet
  facet normal 0.278944 -0.960308 0
    outer loop
      vertex -15.477 -49.9528 12.2
      vertex -14.2342 -49.5918 17.8
      vertex -15.477 -49.9528 17.8
    endloop
  endfacet
  facet normal 0.278944 -0.960308 0
    outer loop
      vertex -14.2342 -49.5918 17.8
      vertex -15.477 -49.9528 12.2
      vertex -14.2342 -49.5918 12.2
    endloop
  endfacet
  facet normal -0.278965 0.960301 0
    outer loop
      vertex -15.9647 -44.2658 12.2
      vertex -16.8697 -44.5287 17.8
      vertex -15.9647 -44.2658 17.8
    endloop
  endfacet
  facet normal -0.278965 0.960301 0
    outer loop
      vertex -16.8697 -44.5287 17.8
      vertex -15.9647 -44.2658 12.2
      vertex -16.8697 -44.5287 12.2
    endloop
  endfacet
  facet normal 0.218149 -0.975915 0
    outer loop
      vertex -16.7399 -50.2351 12.2
      vertex -15.477 -49.9528 17.8
      vertex -16.7399 -50.2351 17.8
    endloop
  endfacet
  facet normal 0.218149 -0.975915 0
    outer loop
      vertex -15.477 -49.9528 17.8
      vertex -16.7399 -50.2351 12.2
      vertex -15.477 -49.9528 12.2
    endloop
  endfacet
  facet normal -0.218189 0.975907 0
    outer loop
      vertex -16.8697 -44.5287 12.2
      vertex -17.7893 -44.7343 17.8
      vertex -16.8697 -44.5287 17.8
    endloop
  endfacet
  facet normal -0.218189 0.975907 0
    outer loop
      vertex -17.7893 -44.7343 17.8
      vertex -16.8697 -44.5287 12.2
      vertex -17.7893 -44.7343 12.2
    endloop
  endfacet
  facet normal 0.156474 -0.987682 0
    outer loop
      vertex -18.0181 -50.4376 12.2
      vertex -16.7399 -50.2351 17.8
      vertex -18.0181 -50.4376 17.8
    endloop
  endfacet
  facet normal 0.156474 -0.987682 0
    outer loop
      vertex -16.7399 -50.2351 17.8
      vertex -18.0181 -50.4376 12.2
      vertex -16.7399 -50.2351 12.2
    endloop
  endfacet
  facet normal -0.156426 0.98769 0
    outer loop
      vertex -17.7893 -44.7343 12.2
      vertex -18.72 -44.8817 17.8
      vertex -17.7893 -44.7343 17.8
    endloop
  endfacet
  facet normal -0.156426 0.98769 0
    outer loop
      vertex -18.72 -44.8817 17.8
      vertex -17.7893 -44.7343 12.2
      vertex -18.72 -44.8817 12.2
    endloop
  endfacet
  facet normal 0.0940396 -0.995568 0
    outer loop
      vertex -19.3065 -50.5593 12.2
      vertex -18.0181 -50.4376 17.8
      vertex -19.3065 -50.5593 17.8
    endloop
  endfacet
  facet normal 0.0940396 -0.995568 0
    outer loop
      vertex -18.0181 -50.4376 17.8
      vertex -19.3065 -50.5593 12.2
      vertex -18.0181 -50.4376 12.2
    endloop
  endfacet
  facet normal -0.094133 0.99556 0
    outer loop
      vertex -18.72 -44.8817 12.2
      vertex -19.6581 -44.9704 17.8
      vertex -18.72 -44.8817 17.8
    endloop
  endfacet
  facet normal -0.094133 0.99556 0
    outer loop
      vertex -19.6581 -44.9704 17.8
      vertex -18.72 -44.8817 12.2
      vertex -19.6581 -44.9704 12.2
    endloop
  endfacet
  facet normal 0.0314495 -0.999505 0
    outer loop
      vertex -20.6 -50.6 12.2
      vertex -19.3065 -50.5593 17.8
      vertex -20.6 -50.6 17.8
    endloop
  endfacet
  facet normal 0.0314495 -0.999505 0
    outer loop
      vertex -19.3065 -50.5593 17.8
      vertex -20.6 -50.6 12.2
      vertex -19.3065 -50.5593 12.2
    endloop
  endfacet
  facet normal -0.0314103 0.999507 0
    outer loop
      vertex -19.6581 -44.9704 12.2
      vertex -20.6 -45 17.8
      vertex -19.6581 -44.9704 17.8
    endloop
  endfacet
  facet normal -0.0314103 0.999507 0
    outer loop
      vertex -20.6 -45 17.8
      vertex -19.6581 -44.9704 12.2
      vertex -20.6 -45 12.2
    endloop
  endfacet
  facet normal -0.0314495 -0.999505 0
    outer loop
      vertex -21.8935 -50.5593 12.2
      vertex -20.6 -50.6 17.8
      vertex -21.8935 -50.5593 17.8
    endloop
  endfacet
  facet normal -0.0314495 -0.999505 -0
    outer loop
      vertex -20.6 -50.6 17.8
      vertex -21.8935 -50.5593 12.2
      vertex -20.6 -50.6 12.2
    endloop
  endfacet
  facet normal 0.0314103 0.999507 -0
    outer loop
      vertex -20.6 -45 12.2
      vertex -21.5419 -44.9704 17.8
      vertex -20.6 -45 17.8
    endloop
  endfacet
  facet normal 0.0314103 0.999507 0
    outer loop
      vertex -21.5419 -44.9704 17.8
      vertex -20.6 -45 12.2
      vertex -21.5419 -44.9704 12.2
    endloop
  endfacet
  facet normal -0.0940396 -0.995568 0
    outer loop
      vertex -23.1819 -50.4376 12.2
      vertex -21.8935 -50.5593 17.8
      vertex -23.1819 -50.4376 17.8
    endloop
  endfacet
  facet normal -0.0940396 -0.995568 -0
    outer loop
      vertex -21.8935 -50.5593 17.8
      vertex -23.1819 -50.4376 12.2
      vertex -21.8935 -50.5593 12.2
    endloop
  endfacet
  facet normal 0.094133 0.99556 -0
    outer loop
      vertex -21.5419 -44.9704 12.2
      vertex -22.48 -44.8817 17.8
      vertex -21.5419 -44.9704 17.8
    endloop
  endfacet
  facet normal 0.094133 0.99556 0
    outer loop
      vertex -22.48 -44.8817 17.8
      vertex -21.5419 -44.9704 12.2
      vertex -22.48 -44.8817 12.2
    endloop
  endfacet
  facet normal -0.156474 -0.987682 0
    outer loop
      vertex -24.4601 -50.2351 12.2
      vertex -23.1819 -50.4376 17.8
      vertex -24.4601 -50.2351 17.8
    endloop
  endfacet
  facet normal -0.156474 -0.987682 -0
    outer loop
      vertex -23.1819 -50.4376 17.8
      vertex -24.4601 -50.2351 12.2
      vertex -23.1819 -50.4376 12.2
    endloop
  endfacet
  facet normal 0.156426 0.98769 -0
    outer loop
      vertex -22.48 -44.8817 12.2
      vertex -23.4107 -44.7343 17.8
      vertex -22.48 -44.8817 17.8
    endloop
  endfacet
  facet normal 0.156426 0.98769 0
    outer loop
      vertex -23.4107 -44.7343 17.8
      vertex -22.48 -44.8817 12.2
      vertex -23.4107 -44.7343 12.2
    endloop
  endfacet
  facet normal -0.218149 -0.975915 0
    outer loop
      vertex -25.723 -49.9528 12.2
      vertex -24.4601 -50.2351 17.8
      vertex -25.723 -49.9528 17.8
    endloop
  endfacet
  facet normal -0.218149 -0.975915 -0
    outer loop
      vertex -24.4601 -50.2351 17.8
      vertex -25.723 -49.9528 12.2
      vertex -24.4601 -50.2351 12.2
    endloop
  endfacet
  facet normal 0.218189 0.975907 -0
    outer loop
      vertex -23.4107 -44.7343 12.2
      vertex -24.3303 -44.5287 17.8
      vertex -23.4107 -44.7343 17.8
    endloop
  endfacet
  facet normal 0.218189 0.975907 0
    outer loop
      vertex -24.3303 -44.5287 17.8
      vertex -23.4107 -44.7343 12.2
      vertex -24.3303 -44.5287 12.2
    endloop
  endfacet
  facet normal -0.278964 -0.960301 0
    outer loop
      vertex -26.9657 -49.5918 12.2
      vertex -25.723 -49.9528 17.8
      vertex -26.9657 -49.5918 17.8
    endloop
  endfacet
  facet normal -0.278964 -0.960301 -0
    outer loop
      vertex -25.723 -49.9528 17.8
      vertex -26.9657 -49.5918 12.2
      vertex -25.723 -49.9528 12.2
    endloop
  endfacet
  facet normal 0.278965 0.960301 -0
    outer loop
      vertex -24.3303 -44.5287 12.2
      vertex -25.2353 -44.2658 17.8
      vertex -24.3303 -44.5287 17.8
    endloop
  endfacet
  facet normal 0.278965 0.960301 0
    outer loop
      vertex -25.2353 -44.2658 17.8
      vertex -24.3303 -44.5287 12.2
      vertex -25.2353 -44.2658 12.2
    endloop
  endfacet
  facet normal -0.338739 -0.940881 0
    outer loop
      vertex -28.1834 -49.1534 12.2
      vertex -26.9657 -49.5918 17.8
      vertex -28.1834 -49.1534 17.8
    endloop
  endfacet
  facet normal -0.338739 -0.940881 -0
    outer loop
      vertex -26.9657 -49.5918 17.8
      vertex -28.1834 -49.1534 12.2
      vertex -26.9657 -49.5918 12.2
    endloop
  endfacet
  facet normal 0.338742 0.940879 -0
    outer loop
      vertex -25.2353 -44.2658 12.2
      vertex -26.1219 -43.9466 17.8
      vertex -25.2353 -44.2658 17.8
    endloop
  endfacet
  facet normal 0.338742 0.940879 0
    outer loop
      vertex -26.1219 -43.9466 17.8
      vertex -25.2353 -44.2658 12.2
      vertex -26.1219 -43.9466 12.2
    endloop
  endfacet
  facet normal -0.397172 -0.917744 0
    outer loop
      vertex -29.3711 -48.6394 12.2
      vertex -28.1834 -49.1534 17.8
      vertex -29.3711 -48.6394 17.8
    endloop
  endfacet
  facet normal -0.397172 -0.917744 -0
    outer loop
      vertex -28.1834 -49.1534 17.8
      vertex -29.3711 -48.6394 12.2
      vertex -28.1834 -49.1534 12.2
    endloop
  endfacet
  facet normal 0.397119 0.917767 -0
    outer loop
      vertex -26.1219 -43.9466 12.2
      vertex -26.9867 -43.5724 17.8
      vertex -26.1219 -43.9466 17.8
    endloop
  endfacet
  facet normal 0.397119 0.917767 0
    outer loop
      vertex -26.9867 -43.5724 17.8
      vertex -26.1219 -43.9466 12.2
      vertex -26.9867 -43.5724 12.2
    endloop
  endfacet
  facet normal -0.454001 -0.891001 0
    outer loop
      vertex -30.5241 -48.0519 12.2
      vertex -29.3711 -48.6394 17.8
      vertex -30.5241 -48.0519 17.8
    endloop
  endfacet
  facet normal -0.454001 -0.891001 -0
    outer loop
      vertex -29.3711 -48.6394 17.8
      vertex -30.5241 -48.0519 12.2
      vertex -29.3711 -48.6394 12.2
    endloop
  endfacet
  facet normal 0.453993 0.891005 -0
    outer loop
      vertex -26.9867 -43.5724 12.2
      vertex -27.8263 -43.1446 17.8
      vertex -26.9867 -43.5724 17.8
    endloop
  endfacet
  facet normal 0.453993 0.891005 0
    outer loop
      vertex -27.8263 -43.1446 17.8
      vertex -26.9867 -43.5724 12.2
      vertex -27.8263 -43.1446 12.2
    endloop
  endfacet
  facet normal -0.509008 -0.860762 0
    outer loop
      vertex -31.638 -47.3932 12.2
      vertex -30.5241 -48.0519 17.8
      vertex -31.638 -47.3932 17.8
    endloop
  endfacet
  facet normal -0.509008 -0.860762 -0
    outer loop
      vertex -30.5241 -48.0519 17.8
      vertex -31.638 -47.3932 12.2
      vertex -30.5241 -48.0519 12.2
    endloop
  endfacet
  facet normal 0.509055 0.860734 -0
    outer loop
      vertex -27.8263 -43.1446 12.2
      vertex -28.6374 -42.6649 17.8
      vertex -27.8263 -43.1446 17.8
    endloop
  endfacet
  facet normal 0.509055 0.860734 0
    outer loop
      vertex -28.6374 -42.6649 17.8
      vertex -27.8263 -43.1446 12.2
      vertex -28.6374 -42.6649 12.2
    endloop
  endfacet
  facet normal -0.562113 -0.82706 0
    outer loop
      vertex -32.7084 -46.6657 12.2
      vertex -31.638 -47.3932 17.8
      vertex -32.7084 -46.6657 17.8
    endloop
  endfacet
  facet normal -0.562113 -0.82706 -0
    outer loop
      vertex -31.638 -47.3932 17.8
      vertex -32.7084 -46.6657 12.2
      vertex -31.638 -47.3932 12.2
    endloop
  endfacet
  facet normal 0.562026 0.82712 -0
    outer loop
      vertex -28.6374 -42.6649 12.2
      vertex -29.4168 -42.1353 17.8
      vertex -28.6374 -42.6649 17.8
    endloop
  endfacet
  facet normal 0.562026 0.82712 0
    outer loop
      vertex -29.4168 -42.1353 17.8
      vertex -28.6374 -42.6649 12.2
      vertex -29.4168 -42.1353 12.2
    endloop
  endfacet
  facet normal -0.612891 -0.790167 0
    outer loop
      vertex -33.7309 -45.8726 12.2
      vertex -32.7084 -46.6657 17.8
      vertex -33.7309 -45.8726 17.8
    endloop
  endfacet
  facet normal -0.612891 -0.790167 -0
    outer loop
      vertex -32.7084 -46.6657 17.8
      vertex -33.7309 -45.8726 12.2
      vertex -32.7084 -46.6657 12.2
    endloop
  endfacet
  facet normal 0.612926 0.79014 -0
    outer loop
      vertex -29.4168 -42.1353 12.2
      vertex -30.1614 -41.5577 17.8
      vertex -29.4168 -42.1353 17.8
    endloop
  endfacet
  facet normal 0.612926 0.79014 0
    outer loop
      vertex -30.1614 -41.5577 17.8
      vertex -29.4168 -42.1353 12.2
      vertex -30.1614 -41.5577 12.2
    endloop
  endfacet
  facet normal -0.661279 -0.75014 0
    outer loop
      vertex -34.7017 -45.0168 12.2
      vertex -33.7309 -45.8726 17.8
      vertex -34.7017 -45.0168 17.8
    endloop
  endfacet
  facet normal -0.661279 -0.75014 -0
    outer loop
      vertex -33.7309 -45.8726 17.8
      vertex -34.7017 -45.0168 12.2
      vertex -33.7309 -45.8726 12.2
    endloop
  endfacet
  facet normal 0.661355 0.750073 -0
    outer loop
      vertex -30.1614 -41.5577 12.2
      vertex -30.8682 -40.9345 17.8
      vertex -30.1614 -41.5577 17.8
    endloop
  endfacet
  facet normal 0.661355 0.750073 0
    outer loop
      vertex -30.8682 -40.9345 17.8
      vertex -30.1614 -41.5577 12.2
      vertex -30.8682 -40.9345 12.2
    endloop
  endfacet
  facet normal -0.707107 -0.707107 0
    outer loop
      vertex -34.7017 -45.0168 12.2
      vertex -35.6168 -44.1017 17.8
      vertex -35.6168 -44.1017 12.2
    endloop
  endfacet
  facet normal -0.707107 -0.707107 0
    outer loop
      vertex -35.6168 -44.1017 17.8
      vertex -34.7017 -45.0168 12.2
      vertex -34.7017 -45.0168 17.8
    endloop
  endfacet
  facet normal 0.707107 0.707107 -0
    outer loop
      vertex -30.8682 -40.9345 12.2
      vertex -31.5345 -40.2682 17.8
      vertex -30.8682 -40.9345 17.8
    endloop
  endfacet
  facet normal 0.707107 0.707107 0
    outer loop
      vertex -31.5345 -40.2682 17.8
      vertex -30.8682 -40.9345 12.2
      vertex -31.5345 -40.2682 12.2
    endloop
  endfacet
  facet normal -0.75014 -0.661279 0
    outer loop
      vertex -35.6168 -44.1017 12.2
      vertex -36.4726 -43.1309 17.8
      vertex -36.4726 -43.1309 12.2
    endloop
  endfacet
  facet normal -0.75014 -0.661279 0
    outer loop
      vertex -36.4726 -43.1309 17.8
      vertex -35.6168 -44.1017 12.2
      vertex -35.6168 -44.1017 17.8
    endloop
  endfacet
  facet normal 0.750073 0.661355 0
    outer loop
      vertex -31.5345 -40.2682 17.8
      vertex -32.1577 -39.5614 12.2
      vertex -32.1577 -39.5614 17.8
    endloop
  endfacet
  facet normal 0.750073 0.661355 0
    outer loop
      vertex -32.1577 -39.5614 12.2
      vertex -31.5345 -40.2682 17.8
      vertex -31.5345 -40.2682 12.2
    endloop
  endfacet
  facet normal -0.79013 -0.61294 0
    outer loop
      vertex -36.4726 -43.1309 12.2
      vertex -37.2658 -42.1084 17.8
      vertex -37.2658 -42.1084 12.2
    endloop
  endfacet
  facet normal -0.79013 -0.61294 0
    outer loop
      vertex -37.2658 -42.1084 17.8
      vertex -36.4726 -43.1309 12.2
      vertex -36.4726 -43.1309 17.8
    endloop
  endfacet
  facet normal 0.79014 0.612926 0
    outer loop
      vertex -32.1577 -39.5614 17.8
      vertex -32.7353 -38.8168 12.2
      vertex -32.7353 -38.8168 17.8
    endloop
  endfacet
  facet normal 0.79014 0.612926 0
    outer loop
      vertex -32.7353 -38.8168 12.2
      vertex -32.1577 -39.5614 17.8
      vertex -32.1577 -39.5614 12.2
    endloop
  endfacet
  facet normal -0.827096 -0.562061 0
    outer loop
      vertex -37.2658 -42.1084 12.2
      vertex -37.9932 -41.038 17.8
      vertex -37.9932 -41.038 12.2
    endloop
  endfacet
  facet normal -0.827096 -0.562061 0
    outer loop
      vertex -37.9932 -41.038 17.8
      vertex -37.2658 -42.1084 12.2
      vertex -37.2658 -42.1084 17.8
    endloop
  endfacet
  facet normal 0.82712 0.562026 0
    outer loop
      vertex -32.7353 -38.8168 17.8
      vertex -33.2649 -38.0374 12.2
      vertex -33.2649 -38.0374 17.8
    endloop
  endfacet
  facet normal 0.82712 0.562026 0
    outer loop
      vertex -33.2649 -38.0374 12.2
      vertex -32.7353 -38.8168 17.8
      vertex -32.7353 -38.8168 12.2
    endloop
  endfacet
  facet normal -0.860762 -0.509008 0
    outer loop
      vertex -37.9932 -41.038 12.2
      vertex -38.6519 -39.9241 17.8
      vertex -38.6519 -39.9241 12.2
    endloop
  endfacet
  facet normal -0.860762 -0.509008 0
    outer loop
      vertex -38.6519 -39.9241 17.8
      vertex -37.9932 -41.038 12.2
      vertex -37.9932 -41.038 17.8
    endloop
  endfacet
  facet normal 0.860734 0.509055 0
    outer loop
      vertex -33.2649 -38.0374 17.8
      vertex -33.7446 -37.2263 12.2
      vertex -33.7446 -37.2263 17.8
    endloop
  endfacet
  facet normal 0.860734 0.509055 0
    outer loop
      vertex -33.7446 -37.2263 12.2
      vertex -33.2649 -38.0374 17.8
      vertex -33.2649 -38.0374 12.2
    endloop
  endfacet
  facet normal -0.891001 -0.454001 0
    outer loop
      vertex -38.6519 -39.9241 12.2
      vertex -39.2394 -38.7711 17.8
      vertex -39.2394 -38.7711 12.2
    endloop
  endfacet
  facet normal -0.891001 -0.454001 0
    outer loop
      vertex -39.2394 -38.7711 17.8
      vertex -38.6519 -39.9241 12.2
      vertex -38.6519 -39.9241 17.8
    endloop
  endfacet
  facet normal 0.891005 0.453993 0
    outer loop
      vertex -33.7446 -37.2263 17.8
      vertex -34.1724 -36.3867 12.2
      vertex -34.1724 -36.3867 17.8
    endloop
  endfacet
  facet normal 0.891005 0.453993 0
    outer loop
      vertex -34.1724 -36.3867 12.2
      vertex -33.7446 -37.2263 17.8
      vertex -33.7446 -37.2263 12.2
    endloop
  endfacet
  facet normal -0.917744 -0.397172 0
    outer loop
      vertex -39.2394 -38.7711 12.2
      vertex -39.7534 -37.5834 17.8
      vertex -39.7534 -37.5834 12.2
    endloop
  endfacet
  facet normal -0.917744 -0.397172 0
    outer loop
      vertex -39.7534 -37.5834 17.8
      vertex -39.2394 -38.7711 12.2
      vertex -39.2394 -38.7711 17.8
    endloop
  endfacet
  facet normal 0.917767 0.397119 0
    outer loop
      vertex -34.1724 -36.3867 17.8
      vertex -34.5466 -35.5219 12.2
      vertex -34.5466 -35.5219 17.8
    endloop
  endfacet
  facet normal 0.917767 0.397119 0
    outer loop
      vertex -34.5466 -35.5219 12.2
      vertex -34.1724 -36.3867 17.8
      vertex -34.1724 -36.3867 12.2
    endloop
  endfacet
  facet normal -0.940881 -0.338739 0
    outer loop
      vertex -39.7534 -37.5834 12.2
      vertex -40.1918 -36.3657 17.8
      vertex -40.1918 -36.3657 12.2
    endloop
  endfacet
  facet normal -0.940881 -0.338739 0
    outer loop
      vertex -40.1918 -36.3657 17.8
      vertex -39.7534 -37.5834 12.2
      vertex -39.7534 -37.5834 17.8
    endloop
  endfacet
  facet normal 0.940879 0.338742 0
    outer loop
      vertex -34.5466 -35.5219 17.8
      vertex -34.8658 -34.6353 12.2
      vertex -34.8658 -34.6353 17.8
    endloop
  endfacet
  facet normal 0.940879 0.338742 0
    outer loop
      vertex -34.8658 -34.6353 12.2
      vertex -34.5466 -35.5219 17.8
      vertex -34.5466 -35.5219 12.2
    endloop
  endfacet
  facet normal -0.960301 -0.278964 0
    outer loop
      vertex -40.1918 -36.3657 12.2
      vertex -40.5528 -35.123 17.8
      vertex -40.5528 -35.123 12.2
    endloop
  endfacet
  facet normal -0.960301 -0.278964 0
    outer loop
      vertex -40.5528 -35.123 17.8
      vertex -40.1918 -36.3657 12.2
      vertex -40.1918 -36.3657 17.8
    endloop
  endfacet
  facet normal 0.960301 0.278965 0
    outer loop
      vertex -34.8658 -34.6353 17.8
      vertex -35.1287 -33.7303 12.2
      vertex -35.1287 -33.7303 17.8
    endloop
  endfacet
  facet normal 0.960301 0.278965 0
    outer loop
      vertex -35.1287 -33.7303 12.2
      vertex -34.8658 -34.6353 17.8
      vertex -34.8658 -34.6353 12.2
    endloop
  endfacet
  facet normal -0.975915 -0.218149 0
    outer loop
      vertex -40.5528 -35.123 12.2
      vertex -40.8351 -33.8601 17.8
      vertex -40.8351 -33.8601 12.2
    endloop
  endfacet
  facet normal -0.975915 -0.218149 0
    outer loop
      vertex -40.8351 -33.8601 17.8
      vertex -40.5528 -35.123 12.2
      vertex -40.5528 -35.123 17.8
    endloop
  endfacet
  facet normal 0.975907 0.218189 0
    outer loop
      vertex -35.1287 -33.7303 17.8
      vertex -35.3343 -32.8107 12.2
      vertex -35.3343 -32.8107 17.8
    endloop
  endfacet
  facet normal 0.975907 0.218189 0
    outer loop
      vertex -35.3343 -32.8107 12.2
      vertex -35.1287 -33.7303 17.8
      vertex -35.1287 -33.7303 12.2
    endloop
  endfacet
  facet normal -0.987682 -0.156474 0
    outer loop
      vertex -40.8351 -33.8601 12.2
      vertex -41.0376 -32.5819 17.8
      vertex -41.0376 -32.5819 12.2
    endloop
  endfacet
  facet normal -0.987682 -0.156474 0
    outer loop
      vertex -41.0376 -32.5819 17.8
      vertex -40.8351 -33.8601 12.2
      vertex -40.8351 -33.8601 17.8
    endloop
  endfacet
  facet normal 0.98769 0.156426 0
    outer loop
      vertex -35.3343 -32.8107 17.8
      vertex -35.4817 -31.88 12.2
      vertex -35.4817 -31.88 17.8
    endloop
  endfacet
  facet normal 0.98769 0.156426 0
    outer loop
      vertex -35.4817 -31.88 12.2
      vertex -35.3343 -32.8107 17.8
      vertex -35.3343 -32.8107 12.2
    endloop
  endfacet
  facet normal -0.995561 -0.0941162 0
    outer loop
      vertex -41.0376 -32.5819 12.2
      vertex -41.1594 -31.2935 17.8
      vertex -41.1594 -31.2935 12.2
    endloop
  endfacet
  facet normal -0.995561 -0.0941162 0
    outer loop
      vertex -41.1594 -31.2935 17.8
      vertex -41.0376 -32.5819 12.2
      vertex -41.0376 -32.5819 17.8
    endloop
  endfacet
  facet normal 0.99556 0.094133 0
    outer loop
      vertex -35.4817 -31.88 17.8
      vertex -35.5704 -30.9419 12.2
      vertex -35.5704 -30.9419 17.8
    endloop
  endfacet
  facet normal 0.99556 0.094133 0
    outer loop
      vertex -35.5704 -30.9419 12.2
      vertex -35.4817 -31.88 17.8
      vertex -35.4817 -31.88 12.2
    endloop
  endfacet
  facet normal 0 0 -1
    outer loop
      vertex -5.6296 -30.9419 12.2
      vertex -0.0406485 -31.2935 12.2
      vertex -0.162436 -32.5819 12.2
    endloop
  endfacet
  facet normal 0 0 -1
    outer loop
      vertex -5.71828 -31.88 12.2
      vertex -0.162436 -32.5819 12.2
      vertex -0.364882 -33.8601 12.2
    endloop
  endfacet
  facet normal 0 0 -1
    outer loop
      vertex -5.86569 -32.8107 12.2
      vertex -0.364882 -33.8601 12.2
      vertex -0.647187 -35.123 12.2
    endloop
  endfacet
  facet normal 0 0 -1
    outer loop
      vertex -6.07125 -33.7303 12.2
      vertex -0.647187 -35.123 12.2
      vertex -1.00823 -36.3657 12.2
    endloop
  endfacet
  facet normal 0 0 -1
    outer loop
      vertex -6.33415 -34.6353 12.2
      vertex -1.00823 -36.3657 12.2
      vertex -1.4466 -37.5834 12.2
    endloop
  endfacet
  facet normal 0 0 -1
    outer loop
      vertex -6.65335 -35.5219 12.2
      vertex -1.4466 -37.5834 12.2
      vertex -1.96056 -38.7711 12.2
    endloop
  endfacet
  facet normal 0 0 -1
    outer loop
      vertex -7.02759 -36.3867 12.2
      vertex -1.96056 -38.7711 12.2
      vertex -2.54808 -39.9241 12.2
    endloop
  endfacet
  facet normal 0 0 -1
    outer loop
      vertex -7.4554 -37.2263 12.2
      vertex -2.54808 -39.9241 12.2
      vertex -3.20684 -41.038 12.2
    endloop
  endfacet
  facet normal 0 0 -1
    outer loop
      vertex -7.93508 -38.0374 12.2
      vertex -3.20684 -41.038 12.2
      vertex -3.93425 -42.1084 12.2
    endloop
  endfacet
  facet normal 0 0 -1
    outer loop
      vertex -8.46474 -38.8168 12.2
      vertex -3.93425 -42.1084 12.2
      vertex -4.72743 -43.1309 12.2
    endloop
  endfacet
  facet normal 0 0 -1
    outer loop
      vertex -9.0423 -39.5614 12.2
      vertex -4.72743 -43.1309 12.2
      vertex -5.58325 -44.1017 12.2
    endloop
  endfacet
  facet normal 0 0 -1
    outer loop
      vertex -1.4466 -37.5834 12.2
      vertex -6.65335 -35.5219 12.2
      vertex -6.33415 -34.6353 12.2
    endloop
  endfacet
  facet normal -0 0 -1
    outer loop
      vertex 0 -30 12.2
      vertex -5.6296 -30.9419 12.2
      vertex -5.6 -30 12.2
    endloop
  endfacet
  facet normal 0 0 -1
    outer loop
      vertex -0.0406485 -31.2935 12.2
      vertex -5.6296 -30.9419 12.2
      vertex 0 -30 12.2
    endloop
  endfacet
  facet normal 0 -0 -1
    outer loop
      vertex -5.6296 -30.9419 12.2
      vertex -0.162436 -32.5819 12.2
      vertex -5.71828 -31.88 12.2
    endloop
  endfacet
  facet normal 0 0 -1
    outer loop
      vertex -0.364882 -33.8601 12.2
      vertex -5.86569 -32.8107 12.2
      vertex -5.71828 -31.88 12.2
    endloop
  endfacet
  facet normal 0 0 -1
    outer loop
      vertex -0.647187 -35.123 12.2
      vertex -6.07125 -33.7303 12.2
      vertex -5.86569 -32.8107 12.2
    endloop
  endfacet
  facet normal 0 0 -1
    outer loop
      vertex -9.66547 -40.2682 12.2
      vertex -5.58325 -44.1017 12.2
      vertex -6.49833 -45.0168 12.2
    endloop
  endfacet
  facet normal 0 0 -1
    outer loop
      vertex -1.00823 -36.3657 12.2
      vertex -6.33415 -34.6353 12.2
      vertex -6.07125 -33.7303 12.2
    endloop
  endfacet
  facet normal 0 0 -1
    outer loop
      vertex -1.96056 -38.7711 12.2
      vertex -7.02759 -36.3867 12.2
      vertex -6.65335 -35.5219 12.2
    endloop
  endfacet
  facet normal 0 0 -1
    outer loop
      vertex -2.54808 -39.9241 12.2
      vertex -7.4554 -37.2263 12.2
      vertex -7.02759 -36.3867 12.2
    endloop
  endfacet
  facet normal 0 0 -1
    outer loop
      vertex -10.3318 -40.9345 12.2
      vertex -6.49833 -45.0168 12.2
      vertex -7.46907 -45.8726 12.2
    endloop
  endfacet
  facet normal 0 0 -1
    outer loop
      vertex -3.20684 -41.038 12.2
      vertex -7.93508 -38.0374 12.2
      vertex -7.4554 -37.2263 12.2
    endloop
  endfacet
  facet normal 0 0 -1
    outer loop
      vertex -3.93425 -42.1084 12.2
      vertex -8.46474 -38.8168 12.2
      vertex -7.93508 -38.0374 12.2
    endloop
  endfacet
  facet normal 0 0 -1
    outer loop
      vertex -11.0386 -41.5577 12.2
      vertex -7.46907 -45.8726 12.2
      vertex -8.49162 -46.6657 12.2
    endloop
  endfacet
  facet normal 0 0 -1
    outer loop
      vertex -4.72743 -43.1309 12.2
      vertex -9.0423 -39.5614 12.2
      vertex -8.46474 -38.8168 12.2
    endloop
  endfacet
  facet normal 0 0 -1
    outer loop
      vertex -11.7832 -42.1353 12.2
      vertex -8.49162 -46.6657 12.2
      vertex -9.56197 -47.3932 12.2
    endloop
  endfacet
  facet normal 0 0 -1
    outer loop
      vertex -5.58325 -44.1017 12.2
      vertex -9.66547 -40.2682 12.2
      vertex -9.0423 -39.5614 12.2
    endloop
  endfacet
  facet normal 0 0 -1
    outer loop
      vertex -6.49833 -45.0168 12.2
      vertex -10.3318 -40.9345 12.2
      vertex -9.66547 -40.2682 12.2
    endloop
  endfacet
  facet normal 0 0 -1
    outer loop
      vertex -12.5626 -42.6649 12.2
      vertex -9.56197 -47.3932 12.2
      vertex -10.6759 -48.0519 12.2
    endloop
  endfacet
  facet normal 0 0 -1
    outer loop
      vertex -7.46907 -45.8726 12.2
      vertex -11.0386 -41.5577 12.2
      vertex -10.3318 -40.9345 12.2
    endloop
  endfacet
  facet normal 0 0 -1
    outer loop
      vertex -8.49162 -46.6657 12.2
      vertex -11.7832 -42.1353 12.2
      vertex -11.0386 -41.5577 12.2
    endloop
  endfacet
  facet normal 0 0 -1
    outer loop
      vertex -13.3737 -43.1446 12.2
      vertex -10.6759 -48.0519 12.2
      vertex -11.8289 -48.6394 12.2
    endloop
  endfacet
  facet normal 0 0 -1
    outer loop
      vertex -9.56197 -47.3932 12.2
      vertex -12.5626 -42.6649 12.2
      vertex -11.7832 -42.1353 12.2
    endloop
  endfacet
  facet normal 0 0 -1
    outer loop
      vertex -14.2133 -43.5724 12.2
      vertex -11.8289 -48.6394 12.2
      vertex -13.0166 -49.1534 12.2
    endloop
  endfacet
  facet normal 0 0 -1
    outer loop
      vertex -10.6759 -48.0519 12.2
      vertex -13.3737 -43.1446 12.2
      vertex -12.5626 -42.6649 12.2
    endloop
  endfacet
  facet normal 0 0 -1
    outer loop
      vertex -11.8289 -48.6394 12.2
      vertex -14.2133 -43.5724 12.2
      vertex -13.3737 -43.1446 12.2
    endloop
  endfacet
  facet normal 0 0 -1
    outer loop
      vertex -15.0781 -43.9466 12.2
      vertex -13.0166 -49.1534 12.2
      vertex -14.2342 -49.5918 12.2
    endloop
  endfacet
  facet normal 0 0 -1
    outer loop
      vertex -13.0166 -49.1534 12.2
      vertex -15.0781 -43.9466 12.2
      vertex -14.2133 -43.5724 12.2
    endloop
  endfacet
  facet normal 0 0 -1
    outer loop
      vertex -15.9647 -44.2658 12.2
      vertex -14.2342 -49.5918 12.2
      vertex -15.477 -49.9528 12.2
    endloop
  endfacet
  facet normal 0 0 -1
    outer loop
      vertex -14.2342 -49.5918 12.2
      vertex -15.9647 -44.2658 12.2
      vertex -15.0781 -43.9466 12.2
    endloop
  endfacet
  facet normal 0 0 -1
    outer loop
      vertex -16.8697 -44.5287 12.2
      vertex -15.477 -49.9528 12.2
      vertex -16.7399 -50.2351 12.2
    endloop
  endfacet
  facet normal 0 0 -1
    outer loop
      vertex -15.477 -49.9528 12.2
      vertex -16.8697 -44.5287 12.2
      vertex -15.9647 -44.2658 12.2
    endloop
  endfacet
  facet normal 0 0 -1
    outer loop
      vertex -16.7399 -50.2351 12.2
      vertex -17.7893 -44.7343 12.2
      vertex -16.8697 -44.5287 12.2
    endloop
  endfacet
  facet normal 0 0 -1
    outer loop
      vertex -18.0181 -50.4376 12.2
      vertex -17.7893 -44.7343 12.2
      vertex -16.7399 -50.2351 12.2
    endloop
  endfacet
  facet normal 0 0 -1
    outer loop
      vertex -18.0181 -50.4376 12.2
      vertex -18.72 -44.8817 12.2
      vertex -17.7893 -44.7343 12.2
    endloop
  endfacet
  facet normal 0 0 -1
    outer loop
      vertex -19.3065 -50.5593 12.2
      vertex -18.72 -44.8817 12.2
      vertex -18.0181 -50.4376 12.2
    endloop
  endfacet
  facet normal 0 0 -1
    outer loop
      vertex -19.3065 -50.5593 12.2
      vertex -19.6581 -44.9704 12.2
      vertex -18.72 -44.8817 12.2
    endloop
  endfacet
  facet normal 0 0 -1
    outer loop
      vertex -20.6 -50.6 12.2
      vertex -19.6581 -44.9704 12.2
      vertex -19.3065 -50.5593 12.2
    endloop
  endfacet
  facet normal 0 0 -1
    outer loop
      vertex -20.6 -50.6 12.2
      vertex -20.6 -45 12.2
      vertex -19.6581 -44.9704 12.2
    endloop
  endfacet
  facet normal 0 0 -1
    outer loop
      vertex -20.6 -50.6 12.2
      vertex -21.5419 -44.9704 12.2
      vertex -20.6 -45 12.2
    endloop
  endfacet
  facet normal 0 0 -1
    outer loop
      vertex -21.8935 -50.5593 12.2
      vertex -21.5419 -44.9704 12.2
      vertex -20.6 -50.6 12.2
    endloop
  endfacet
  facet normal 0 0 -1
    outer loop
      vertex -21.8935 -50.5593 12.2
      vertex -22.48 -44.8817 12.2
      vertex -21.5419 -44.9704 12.2
    endloop
  endfacet
  facet normal 0 0 -1
    outer loop
      vertex -23.1819 -50.4376 12.2
      vertex -22.48 -44.8817 12.2
      vertex -21.8935 -50.5593 12.2
    endloop
  endfacet
  facet normal 0 0 -1
    outer loop
      vertex -23.1819 -50.4376 12.2
      vertex -23.4107 -44.7343 12.2
      vertex -22.48 -44.8817 12.2
    endloop
  endfacet
  facet normal 0 0 -1
    outer loop
      vertex -24.4601 -50.2351 12.2
      vertex -23.4107 -44.7343 12.2
      vertex -23.1819 -50.4376 12.2
    endloop
  endfacet
  facet normal -0 0 -1
    outer loop
      vertex -23.4107 -44.7343 12.2
      vertex -24.4601 -50.2351 12.2
      vertex -24.3303 -44.5287 12.2
    endloop
  endfacet
  facet normal 0 0 -1
    outer loop
      vertex -25.723 -49.9528 12.2
      vertex -24.3303 -44.5287 12.2
      vertex -24.4601 -50.2351 12.2
    endloop
  endfacet
  facet normal -0 0 -1
    outer loop
      vertex -24.3303 -44.5287 12.2
      vertex -25.723 -49.9528 12.2
      vertex -25.2353 -44.2658 12.2
    endloop
  endfacet
  facet normal 0 0 -1
    outer loop
      vertex -26.9657 -49.5918 12.2
      vertex -25.2353 -44.2658 12.2
      vertex -25.723 -49.9528 12.2
    endloop
  endfacet
  facet normal -0 0 -1
    outer loop
      vertex -25.2353 -44.2658 12.2
      vertex -26.9657 -49.5918 12.2
      vertex -26.1219 -43.9466 12.2
    endloop
  endfacet
  facet normal 0 0 -1
    outer loop
      vertex -28.1834 -49.1534 12.2
      vertex -26.1219 -43.9466 12.2
      vertex -26.9657 -49.5918 12.2
    endloop
  endfacet
  facet normal -0 0 -1
    outer loop
      vertex -26.1219 -43.9466 12.2
      vertex -28.1834 -49.1534 12.2
      vertex -26.9867 -43.5724 12.2
    endloop
  endfacet
  facet normal 0 0 -1
    outer loop
      vertex -29.3711 -48.6394 12.2
      vertex -26.9867 -43.5724 12.2
      vertex -28.1834 -49.1534 12.2
    endloop
  endfacet
  facet normal -0 0 -1
    outer loop
      vertex -26.9867 -43.5724 12.2
      vertex -29.3711 -48.6394 12.2
      vertex -27.8263 -43.1446 12.2
    endloop
  endfacet
  facet normal 0 0 -1
    outer loop
      vertex -30.5241 -48.0519 12.2
      vertex -27.8263 -43.1446 12.2
      vertex -29.3711 -48.6394 12.2
    endloop
  endfacet
  facet normal -0 0 -1
    outer loop
      vertex -27.8263 -43.1446 12.2
      vertex -30.5241 -48.0519 12.2
      vertex -28.6374 -42.6649 12.2
    endloop
  endfacet
  facet normal 0 0 -1
    outer loop
      vertex -31.638 -47.3932 12.2
      vertex -28.6374 -42.6649 12.2
      vertex -30.5241 -48.0519 12.2
    endloop
  endfacet
  facet normal -0 0 -1
    outer loop
      vertex -28.6374 -42.6649 12.2
      vertex -31.638 -47.3932 12.2
      vertex -29.4168 -42.1353 12.2
    endloop
  endfacet
  facet normal 0 0 -1
    outer loop
      vertex -32.7084 -46.6657 12.2
      vertex -29.4168 -42.1353 12.2
      vertex -31.638 -47.3932 12.2
    endloop
  endfacet
  facet normal -0 0 -1
    outer loop
      vertex -29.4168 -42.1353 12.2
      vertex -32.7084 -46.6657 12.2
      vertex -30.1614 -41.5577 12.2
    endloop
  endfacet
  facet normal 0 0 -1
    outer loop
      vertex -33.7309 -45.8726 12.2
      vertex -30.1614 -41.5577 12.2
      vertex -32.7084 -46.6657 12.2
    endloop
  endfacet
  facet normal -0 0 -1
    outer loop
      vertex -30.1614 -41.5577 12.2
      vertex -33.7309 -45.8726 12.2
      vertex -30.8682 -40.9345 12.2
    endloop
  endfacet
  facet normal 0 0 -1
    outer loop
      vertex -34.7017 -45.0168 12.2
      vertex -30.8682 -40.9345 12.2
      vertex -33.7309 -45.8726 12.2
    endloop
  endfacet
  facet normal -0 0 -1
    outer loop
      vertex -30.8682 -40.9345 12.2
      vertex -34.7017 -45.0168 12.2
      vertex -31.5345 -40.2682 12.2
    endloop
  endfacet
  facet normal 0 0 -1
    outer loop
      vertex -35.6168 -44.1017 12.2
      vertex -31.5345 -40.2682 12.2
      vertex -34.7017 -45.0168 12.2
    endloop
  endfacet
  facet normal -0 0 -1
    outer loop
      vertex -31.5345 -40.2682 12.2
      vertex -35.6168 -44.1017 12.2
      vertex -32.1577 -39.5614 12.2
    endloop
  endfacet
  facet normal 0 0 -1
    outer loop
      vertex -36.4726 -43.1309 12.2
      vertex -32.1577 -39.5614 12.2
      vertex -35.6168 -44.1017 12.2
    endloop
  endfacet
  facet normal -0 0 -1
    outer loop
      vertex -32.1577 -39.5614 12.2
      vertex -36.4726 -43.1309 12.2
      vertex -32.7353 -38.8168 12.2
    endloop
  endfacet
  facet normal 0 0 -1
    outer loop
      vertex -37.2658 -42.1084 12.2
      vertex -32.7353 -38.8168 12.2
      vertex -36.4726 -43.1309 12.2
    endloop
  endfacet
  facet normal -0 0 -1
    outer loop
      vertex -32.7353 -38.8168 12.2
      vertex -37.2658 -42.1084 12.2
      vertex -33.2649 -38.0374 12.2
    endloop
  endfacet
  facet normal 0 0 -1
    outer loop
      vertex -37.9932 -41.038 12.2
      vertex -33.2649 -38.0374 12.2
      vertex -37.2658 -42.1084 12.2
    endloop
  endfacet
  facet normal -0 0 -1
    outer loop
      vertex -33.2649 -38.0374 12.2
      vertex -37.9932 -41.038 12.2
      vertex -33.7446 -37.2263 12.2
    endloop
  endfacet
  facet normal 0 0 -1
    outer loop
      vertex -38.6519 -39.9241 12.2
      vertex -33.7446 -37.2263 12.2
      vertex -37.9932 -41.038 12.2
    endloop
  endfacet
  facet normal -0 0 -1
    outer loop
      vertex -33.7446 -37.2263 12.2
      vertex -38.6519 -39.9241 12.2
      vertex -34.1724 -36.3867 12.2
    endloop
  endfacet
  facet normal 0 0 -1
    outer loop
      vertex -39.2394 -38.7711 12.2
      vertex -34.1724 -36.3867 12.2
      vertex -38.6519 -39.9241 12.2
    endloop
  endfacet
  facet normal -0 0 -1
    outer loop
      vertex -34.1724 -36.3867 12.2
      vertex -39.2394 -38.7711 12.2
      vertex -34.5466 -35.5219 12.2
    endloop
  endfacet
  facet normal 0 0 -1
    outer loop
      vertex -39.7534 -37.5834 12.2
      vertex -34.5466 -35.5219 12.2
      vertex -39.2394 -38.7711 12.2
    endloop
  endfacet
  facet normal -0 0 -1
    outer loop
      vertex -34.5466 -35.5219 12.2
      vertex -39.7534 -37.5834 12.2
      vertex -34.8658 -34.6353 12.2
    endloop
  endfacet
  facet normal 0 0 -1
    outer loop
      vertex -40.1918 -36.3657 12.2
      vertex -34.8658 -34.6353 12.2
      vertex -39.7534 -37.5834 12.2
    endloop
  endfacet
  facet normal -0 0 -1
    outer loop
      vertex -34.8658 -34.6353 12.2
      vertex -40.1918 -36.3657 12.2
      vertex -35.1287 -33.7303 12.2
    endloop
  endfacet
  facet normal 0 0 -1
    outer loop
      vertex -40.5528 -35.123 12.2
      vertex -35.1287 -33.7303 12.2
      vertex -40.1918 -36.3657 12.2
    endloop
  endfacet
  facet normal -0 0 -1
    outer loop
      vertex -35.1287 -33.7303 12.2
      vertex -40.5528 -35.123 12.2
      vertex -35.3343 -32.8107 12.2
    endloop
  endfacet
  facet normal 0 0 -1
    outer loop
      vertex -40.8351 -33.8601 12.2
      vertex -35.3343 -32.8107 12.2
      vertex -40.5528 -35.123 12.2
    endloop
  endfacet
  facet normal -0 0 -1
    outer loop
      vertex -35.3343 -32.8107 12.2
      vertex -40.8351 -33.8601 12.2
      vertex -35.4817 -31.88 12.2
    endloop
  endfacet
  facet normal 0 0 -1
    outer loop
      vertex -41.0376 -32.5819 12.2
      vertex -35.4817 -31.88 12.2
      vertex -40.8351 -33.8601 12.2
    endloop
  endfacet
  facet normal -0 0 -1
    outer loop
      vertex -35.4817 -31.88 12.2
      vertex -41.0376 -32.5819 12.2
      vertex -35.5704 -30.9419 12.2
    endloop
  endfacet
  facet normal 0 0 -1
    outer loop
      vertex -41.1594 -31.2935 12.2
      vertex -35.5704 -30.9419 12.2
      vertex -41.0376 -32.5819 12.2
    endloop
  endfacet
  facet normal -0 0 -1
    outer loop
      vertex -35.5704 -30.9419 12.2
      vertex -41.1594 -31.2935 12.2
      vertex -35.6 -30 12.2
    endloop
  endfacet
  facet normal -0 0 -1
    outer loop
      vertex -35.6 -30 12.2
      vertex -41.1594 -31.2935 12.2
      vertex -41.2 -30 12.2
    endloop
  endfacet
  facet normal -0.999508 -0.0313723 0
    outer loop
      vertex -41.1594 -31.2935 12.2
      vertex -41.2 -30 17.8
      vertex -41.2 -30 12.2
    endloop
  endfacet
  facet normal -0.999508 -0.0313723 0
    outer loop
      vertex -41.2 -30 17.8
      vertex -41.1594 -31.2935 12.2
      vertex -41.1594 -31.2935 17.8
    endloop
  endfacet
  facet normal -0 0 1
    outer loop
      vertex -5.6296 -30.9419 17.8
      vertex -0.0406485 -31.2935 17.8
      vertex 0 -30 17.8
    endloop
  endfacet
  facet normal 0 0 1
    outer loop
      vertex -0.0406485 -31.2935 17.8
      vertex -5.6296 -30.9419 17.8
      vertex -0.162436 -32.5819 17.8
    endloop
  endfacet
  facet normal 0 0 1
    outer loop
      vertex -0.162436 -32.5819 17.8
      vertex -5.71828 -31.88 17.8
      vertex -0.364882 -33.8601 17.8
    endloop
  endfacet
  facet normal -0 0 1
    outer loop
      vertex -5.86569 -32.8107 17.8
      vertex -0.364882 -33.8601 17.8
      vertex -5.71828 -31.88 17.8
    endloop
  endfacet
  facet normal -0 0 1
    outer loop
      vertex -6.07125 -33.7303 17.8
      vertex -0.647187 -35.123 17.8
      vertex -5.86569 -32.8107 17.8
    endloop
  endfacet
  facet normal 0 0 1
    outer loop
      vertex -0.647187 -35.123 17.8
      vertex -6.07125 -33.7303 17.8
      vertex -1.00823 -36.3657 17.8
    endloop
  endfacet
  facet normal 0 0 1
    outer loop
      vertex -1.00823 -36.3657 17.8
      vertex -6.33415 -34.6353 17.8
      vertex -1.4466 -37.5834 17.8
    endloop
  endfacet
  facet normal -0 0 1
    outer loop
      vertex -6.65335 -35.5219 17.8
      vertex -1.4466 -37.5834 17.8
      vertex -6.33415 -34.6353 17.8
    endloop
  endfacet
  facet normal -0 0 1
    outer loop
      vertex -7.02759 -36.3867 17.8
      vertex -1.96056 -38.7711 17.8
      vertex -6.65335 -35.5219 17.8
    endloop
  endfacet
  facet normal 0 0 1
    outer loop
      vertex -1.96056 -38.7711 17.8
      vertex -7.02759 -36.3867 17.8
      vertex -2.54808 -39.9241 17.8
    endloop
  endfacet
  facet normal 0 0 1
    outer loop
      vertex -2.54808 -39.9241 17.8
      vertex -7.4554 -37.2263 17.8
      vertex -3.20684 -41.038 17.8
    endloop
  endfacet
  facet normal 0 0 1
    outer loop
      vertex -5.6296 -30.9419 17.8
      vertex 0 -30 17.8
      vertex -5.6 -30 17.8
    endloop
  endfacet
  facet normal 0 0 1
    outer loop
      vertex -0.162436 -32.5819 17.8
      vertex -5.6296 -30.9419 17.8
      vertex -5.71828 -31.88 17.8
    endloop
  endfacet
  facet normal 0 0 1
    outer loop
      vertex -0.364882 -33.8601 17.8
      vertex -5.86569 -32.8107 17.8
      vertex -0.647187 -35.123 17.8
    endloop
  endfacet
  facet normal -0 0 1
    outer loop
      vertex -6.33415 -34.6353 17.8
      vertex -1.00823 -36.3657 17.8
      vertex -6.07125 -33.7303 17.8
    endloop
  endfacet
  facet normal 0 0 1
    outer loop
      vertex -1.4466 -37.5834 17.8
      vertex -6.65335 -35.5219 17.8
      vertex -1.96056 -38.7711 17.8
    endloop
  endfacet
  facet normal -0 0 1
    outer loop
      vertex -7.4554 -37.2263 17.8
      vertex -2.54808 -39.9241 17.8
      vertex -7.02759 -36.3867 17.8
    endloop
  endfacet
  facet normal -0 0 1
    outer loop
      vertex -7.93508 -38.0374 17.8
      vertex -3.20684 -41.038 17.8
      vertex -7.4554 -37.2263 17.8
    endloop
  endfacet
  facet normal 0 0 1
    outer loop
      vertex -3.20684 -41.038 17.8
      vertex -7.93508 -38.0374 17.8
      vertex -3.93425 -42.1084 17.8
    endloop
  endfacet
  facet normal -0 0 1
    outer loop
      vertex -8.46474 -38.8168 17.8
      vertex -3.93425 -42.1084 17.8
      vertex -7.93508 -38.0374 17.8
    endloop
  endfacet
  facet normal 0 0 1
    outer loop
      vertex -3.93425 -42.1084 17.8
      vertex -8.46474 -38.8168 17.8
      vertex -4.72743 -43.1309 17.8
    endloop
  endfacet
  facet normal -0 0 1
    outer loop
      vertex -9.0423 -39.5614 17.8
      vertex -4.72743 -43.1309 17.8
      vertex -8.46474 -38.8168 17.8
    endloop
  endfacet
  facet normal 0 0 1
    outer loop
      vertex -4.72743 -43.1309 17.8
      vertex -9.0423 -39.5614 17.8
      vertex -5.58325 -44.1017 17.8
    endloop
  endfacet
  facet normal -0 0 1
    outer loop
      vertex -9.66547 -40.2682 17.8
      vertex -5.58325 -44.1017 17.8
      vertex -9.0423 -39.5614 17.8
    endloop
  endfacet
  facet normal 0 0 1
    outer loop
      vertex -5.58325 -44.1017 17.8
      vertex -9.66547 -40.2682 17.8
      vertex -6.49833 -45.0168 17.8
    endloop
  endfacet
  facet normal -0 0 1
    outer loop
      vertex -10.3318 -40.9345 17.8
      vertex -6.49833 -45.0168 17.8
      vertex -9.66547 -40.2682 17.8
    endloop
  endfacet
  facet normal 0 0 1
    outer loop
      vertex -6.49833 -45.0168 17.8
      vertex -10.3318 -40.9345 17.8
      vertex -7.46907 -45.8726 17.8
    endloop
  endfacet
  facet normal -0 0 1
    outer loop
      vertex -11.0386 -41.5577 17.8
      vertex -7.46907 -45.8726 17.8
      vertex -10.3318 -40.9345 17.8
    endloop
  endfacet
  facet normal 0 0 1
    outer loop
      vertex -7.46907 -45.8726 17.8
      vertex -11.0386 -41.5577 17.8
      vertex -8.49162 -46.6657 17.8
    endloop
  endfacet
  facet normal -0 0 1
    outer loop
      vertex -11.7832 -42.1353 17.8
      vertex -8.49162 -46.6657 17.8
      vertex -11.0386 -41.5577 17.8
    endloop
  endfacet
  facet normal 0 0 1
    outer loop
      vertex -8.49162 -46.6657 17.8
      vertex -11.7832 -42.1353 17.8
      vertex -9.56197 -47.3932 17.8
    endloop
  endfacet
  facet normal -0 0 1
    outer loop
      vertex -12.5626 -42.6649 17.8
      vertex -9.56197 -47.3932 17.8
      vertex -11.7832 -42.1353 17.8
    endloop
  endfacet
  facet normal 0 0 1
    outer loop
      vertex -9.56197 -47.3932 17.8
      vertex -12.5626 -42.6649 17.8
      vertex -10.6759 -48.0519 17.8
    endloop
  endfacet
  facet normal -0 0 1
    outer loop
      vertex -13.3737 -43.1446 17.8
      vertex -10.6759 -48.0519 17.8
      vertex -12.5626 -42.6649 17.8
    endloop
  endfacet
  facet normal 0 0 1
    outer loop
      vertex -10.6759 -48.0519 17.8
      vertex -13.3737 -43.1446 17.8
      vertex -11.8289 -48.6394 17.8
    endloop
  endfacet
  facet normal -0 0 1
    outer loop
      vertex -14.2133 -43.5724 17.8
      vertex -11.8289 -48.6394 17.8
      vertex -13.3737 -43.1446 17.8
    endloop
  endfacet
  facet normal 0 0 1
    outer loop
      vertex -11.8289 -48.6394 17.8
      vertex -14.2133 -43.5724 17.8
      vertex -13.0166 -49.1534 17.8
    endloop
  endfacet
  facet normal -0 0 1
    outer loop
      vertex -15.0781 -43.9466 17.8
      vertex -13.0166 -49.1534 17.8
      vertex -14.2133 -43.5724 17.8
    endloop
  endfacet
  facet normal 0 0 1
    outer loop
      vertex -13.0166 -49.1534 17.8
      vertex -15.0781 -43.9466 17.8
      vertex -14.2342 -49.5918 17.8
    endloop
  endfacet
  facet normal -0 0 1
    outer loop
      vertex -15.9647 -44.2658 17.8
      vertex -14.2342 -49.5918 17.8
      vertex -15.0781 -43.9466 17.8
    endloop
  endfacet
  facet normal 0 0 1
    outer loop
      vertex -14.2342 -49.5918 17.8
      vertex -15.9647 -44.2658 17.8
      vertex -15.477 -49.9528 17.8
    endloop
  endfacet
  facet normal -0 0 1
    outer loop
      vertex -16.8697 -44.5287 17.8
      vertex -15.477 -49.9528 17.8
      vertex -15.9647 -44.2658 17.8
    endloop
  endfacet
  facet normal 0 0 1
    outer loop
      vertex -15.477 -49.9528 17.8
      vertex -16.8697 -44.5287 17.8
      vertex -16.7399 -50.2351 17.8
    endloop
  endfacet
  facet normal -0 0 1
    outer loop
      vertex -17.7893 -44.7343 17.8
      vertex -16.7399 -50.2351 17.8
      vertex -16.8697 -44.5287 17.8
    endloop
  endfacet
  facet normal 0 0 1
    outer loop
      vertex -17.7893 -44.7343 17.8
      vertex -18.0181 -50.4376 17.8
      vertex -16.7399 -50.2351 17.8
    endloop
  endfacet
  facet normal -0 0 1
    outer loop
      vertex -18.72 -44.8817 17.8
      vertex -18.0181 -50.4376 17.8
      vertex -17.7893 -44.7343 17.8
    endloop
  endfacet
  facet normal 0 0 1
    outer loop
      vertex -18.72 -44.8817 17.8
      vertex -19.3065 -50.5593 17.8
      vertex -18.0181 -50.4376 17.8
    endloop
  endfacet
  facet normal -0 0 1
    outer loop
      vertex -19.6581 -44.9704 17.8
      vertex -19.3065 -50.5593 17.8
      vertex -18.72 -44.8817 17.8
    endloop
  endfacet
  facet normal -0 0 1
    outer loop
      vertex -20.6 -45 17.8
      vertex -19.3065 -50.5593 17.8
      vertex -19.6581 -44.9704 17.8
    endloop
  endfacet
  facet normal 0 0 1
    outer loop
      vertex -20.6 -45 17.8
      vertex -20.6 -50.6 17.8
      vertex -19.3065 -50.5593 17.8
    endloop
  endfacet
  facet normal 0 0 1
    outer loop
      vertex -21.5419 -44.9704 17.8
      vertex -20.6 -50.6 17.8
      vertex -20.6 -45 17.8
    endloop
  endfacet
  facet normal 0 0 1
    outer loop
      vertex -21.5419 -44.9704 17.8
      vertex -21.8935 -50.5593 17.8
      vertex -20.6 -50.6 17.8
    endloop
  endfacet
  facet normal 0 0 1
    outer loop
      vertex -22.48 -44.8817 17.8
      vertex -21.8935 -50.5593 17.8
      vertex -21.5419 -44.9704 17.8
    endloop
  endfacet
  facet normal 0 0 1
    outer loop
      vertex -22.48 -44.8817 17.8
      vertex -23.1819 -50.4376 17.8
      vertex -21.8935 -50.5593 17.8
    endloop
  endfacet
  facet normal 0 0 1
    outer loop
      vertex -23.4107 -44.7343 17.8
      vertex -23.1819 -50.4376 17.8
      vertex -22.48 -44.8817 17.8
    endloop
  endfacet
  facet normal 0 0 1
    outer loop
      vertex -24.4601 -50.2351 17.8
      vertex -23.4107 -44.7343 17.8
      vertex -24.3303 -44.5287 17.8
    endloop
  endfacet
  facet normal 0 0 1
    outer loop
      vertex -23.4107 -44.7343 17.8
      vertex -24.4601 -50.2351 17.8
      vertex -23.1819 -50.4376 17.8
    endloop
  endfacet
  facet normal 0 0 1
    outer loop
      vertex -25.723 -49.9528 17.8
      vertex -24.3303 -44.5287 17.8
      vertex -25.2353 -44.2658 17.8
    endloop
  endfacet
  facet normal 0 0 1
    outer loop
      vertex -24.3303 -44.5287 17.8
      vertex -25.723 -49.9528 17.8
      vertex -24.4601 -50.2351 17.8
    endloop
  endfacet
  facet normal 0 0 1
    outer loop
      vertex -26.9657 -49.5918 17.8
      vertex -25.2353 -44.2658 17.8
      vertex -26.1219 -43.9466 17.8
    endloop
  endfacet
  facet normal 0 0 1
    outer loop
      vertex -25.2353 -44.2658 17.8
      vertex -26.9657 -49.5918 17.8
      vertex -25.723 -49.9528 17.8
    endloop
  endfacet
  facet normal 0 0 1
    outer loop
      vertex -28.1834 -49.1534 17.8
      vertex -26.1219 -43.9466 17.8
      vertex -26.9867 -43.5724 17.8
    endloop
  endfacet
  facet normal 0 0 1
    outer loop
      vertex -29.3711 -48.6394 17.8
      vertex -26.9867 -43.5724 17.8
      vertex -27.8263 -43.1446 17.8
    endloop
  endfacet
  facet normal 0 0 1
    outer loop
      vertex -26.1219 -43.9466 17.8
      vertex -28.1834 -49.1534 17.8
      vertex -26.9657 -49.5918 17.8
    endloop
  endfacet
  facet normal 0 0 1
    outer loop
      vertex -30.5241 -48.0519 17.8
      vertex -27.8263 -43.1446 17.8
      vertex -28.6374 -42.6649 17.8
    endloop
  endfacet
  facet normal 0 0 1
    outer loop
      vertex -26.9867 -43.5724 17.8
      vertex -29.3711 -48.6394 17.8
      vertex -28.1834 -49.1534 17.8
    endloop
  endfacet
  facet normal 0 0 1
    outer loop
      vertex -31.638 -47.3932 17.8
      vertex -28.6374 -42.6649 17.8
      vertex -29.4168 -42.1353 17.8
    endloop
  endfacet
  facet normal 0 0 1
    outer loop
      vertex -32.7084 -46.6657 17.8
      vertex -29.4168 -42.1353 17.8
      vertex -30.1614 -41.5577 17.8
    endloop
  endfacet
  facet normal 0 0 1
    outer loop
      vertex -27.8263 -43.1446 17.8
      vertex -30.5241 -48.0519 17.8
      vertex -29.3711 -48.6394 17.8
    endloop
  endfacet
  facet normal 0 0 1
    outer loop
      vertex -33.7309 -45.8726 17.8
      vertex -30.1614 -41.5577 17.8
      vertex -30.8682 -40.9345 17.8
    endloop
  endfacet
  facet normal 0 0 1
    outer loop
      vertex -34.7017 -45.0168 17.8
      vertex -30.8682 -40.9345 17.8
      vertex -31.5345 -40.2682 17.8
    endloop
  endfacet
  facet normal 0 0 1
    outer loop
      vertex -28.6374 -42.6649 17.8
      vertex -31.638 -47.3932 17.8
      vertex -30.5241 -48.0519 17.8
    endloop
  endfacet
  facet normal 0 0 1
    outer loop
      vertex -35.6168 -44.1017 17.8
      vertex -31.5345 -40.2682 17.8
      vertex -32.1577 -39.5614 17.8
    endloop
  endfacet
  facet normal 0 0 1
    outer loop
      vertex -29.4168 -42.1353 17.8
      vertex -32.7084 -46.6657 17.8
      vertex -31.638 -47.3932 17.8
    endloop
  endfacet
  facet normal 0 0 1
    outer loop
      vertex -36.4726 -43.1309 17.8
      vertex -32.1577 -39.5614 17.8
      vertex -32.7353 -38.8168 17.8
    endloop
  endfacet
  facet normal 0 0 1
    outer loop
      vertex -37.2658 -42.1084 17.8
      vertex -32.7353 -38.8168 17.8
      vertex -33.2649 -38.0374 17.8
    endloop
  endfacet
  facet normal 0 0 1
    outer loop
      vertex -30.1614 -41.5577 17.8
      vertex -33.7309 -45.8726 17.8
      vertex -32.7084 -46.6657 17.8
    endloop
  endfacet
  facet normal 0 0 1
    outer loop
      vertex -37.9932 -41.038 17.8
      vertex -33.2649 -38.0374 17.8
      vertex -33.7446 -37.2263 17.8
    endloop
  endfacet
  facet normal 0 0 1
    outer loop
      vertex -38.6519 -39.9241 17.8
      vertex -33.7446 -37.2263 17.8
      vertex -34.1724 -36.3867 17.8
    endloop
  endfacet
  facet normal 0 0 1
    outer loop
      vertex -39.2394 -38.7711 17.8
      vertex -34.1724 -36.3867 17.8
      vertex -34.5466 -35.5219 17.8
    endloop
  endfacet
  facet normal 0 0 1
    outer loop
      vertex -30.8682 -40.9345 17.8
      vertex -34.7017 -45.0168 17.8
      vertex -33.7309 -45.8726 17.8
    endloop
  endfacet
  facet normal 0 0 1
    outer loop
      vertex -39.7534 -37.5834 17.8
      vertex -34.5466 -35.5219 17.8
      vertex -34.8658 -34.6353 17.8
    endloop
  endfacet
  facet normal 0 0 1
    outer loop
      vertex -40.1918 -36.3657 17.8
      vertex -34.8658 -34.6353 17.8
      vertex -35.1287 -33.7303 17.8
    endloop
  endfacet
  facet normal 0 0 1
    outer loop
      vertex -40.5528 -35.123 17.8
      vertex -35.1287 -33.7303 17.8
      vertex -35.3343 -32.8107 17.8
    endloop
  endfacet
  facet normal 0 0 1
    outer loop
      vertex -40.8351 -33.8601 17.8
      vertex -35.3343 -32.8107 17.8
      vertex -35.4817 -31.88 17.8
    endloop
  endfacet
  facet normal 0 0 1
    outer loop
      vertex -41.0376 -32.5819 17.8
      vertex -35.4817 -31.88 17.8
      vertex -35.5704 -30.9419 17.8
    endloop
  endfacet
  facet normal 0 0 1
    outer loop
      vertex -31.5345 -40.2682 17.8
      vertex -35.6168 -44.1017 17.8
      vertex -34.7017 -45.0168 17.8
    endloop
  endfacet
  facet normal 0 0 1
    outer loop
      vertex -41.1594 -31.2935 17.8
      vertex -35.5704 -30.9419 17.8
      vertex -35.6 -30 17.8
    endloop
  endfacet
  facet normal 0 0 1
    outer loop
      vertex -32.1577 -39.5614 17.8
      vertex -36.4726 -43.1309 17.8
      vertex -35.6168 -44.1017 17.8
    endloop
  endfacet
  facet normal 0 0 1
    outer loop
      vertex -32.7353 -38.8168 17.8
      vertex -37.2658 -42.1084 17.8
      vertex -36.4726 -43.1309 17.8
    endloop
  endfacet
  facet normal 0 0 1
    outer loop
      vertex -33.2649 -38.0374 17.8
      vertex -37.9932 -41.038 17.8
      vertex -37.2658 -42.1084 17.8
    endloop
  endfacet
  facet normal 0 0 1
    outer loop
      vertex -33.7446 -37.2263 17.8
      vertex -38.6519 -39.9241 17.8
      vertex -37.9932 -41.038 17.8
    endloop
  endfacet
  facet normal 0 0 1
    outer loop
      vertex -34.1724 -36.3867 17.8
      vertex -39.2394 -38.7711 17.8
      vertex -38.6519 -39.9241 17.8
    endloop
  endfacet
  facet normal 0 0 1
    outer loop
      vertex -34.5466 -35.5219 17.8
      vertex -39.7534 -37.5834 17.8
      vertex -39.2394 -38.7711 17.8
    endloop
  endfacet
  facet normal 0 0 1
    outer loop
      vertex -34.8658 -34.6353 17.8
      vertex -40.1918 -36.3657 17.8
      vertex -39.7534 -37.5834 17.8
    endloop
  endfacet
  facet normal 0 0 1
    outer loop
      vertex -35.1287 -33.7303 17.8
      vertex -40.5528 -35.123 17.8
      vertex -40.1918 -36.3657 17.8
    endloop
  endfacet
  facet normal 0 0 1
    outer loop
      vertex -35.3343 -32.8107 17.8
      vertex -40.8351 -33.8601 17.8
      vertex -40.5528 -35.123 17.8
    endloop
  endfacet
  facet normal 0 0 1
    outer loop
      vertex -35.4817 -31.88 17.8
      vertex -41.0376 -32.5819 17.8
      vertex -40.8351 -33.8601 17.8
    endloop
  endfacet
  facet normal 0 0 1
    outer loop
      vertex -35.5704 -30.9419 17.8
      vertex -41.1594 -31.2935 17.8
      vertex -41.0376 -32.5819 17.8
    endloop
  endfacet
  facet normal 0 -0 1
    outer loop
      vertex -41.1594 -31.2935 17.8
      vertex -35.6 -30 17.8
      vertex -41.2 -30 17.8
    endloop
  endfacet
  facet normal 0.999507 0.0314103 0
    outer loop
      vertex -35.5704 -30.9419 17.8
      vertex -35.6 -30 12.2
      vertex -35.6 -30 17.8
    endloop
  endfacet
  facet normal 0.999507 0.0314103 0
    outer loop
      vertex -35.6 -30 12.2
      vertex -35.5704 -30.9419 17.8
      vertex -35.5704 -30.9419 12.2
    endloop
  endfacet
endsolid OpenSCAD_Model
